{
	"asset":{
		"generator":"Khronos glTF Blender I/O v5.0.21",
		"version":"2.0"
	},
	"scene":0,
	"scenes":[
		{
			"name":"Scene",
			"nodes":[
				0,
				1,
				2
			]
		}
	],
	"nodes":[
		{
			"mesh":0,
			"name":"body",
			"scale":[
				1.2774707078933716,
				1.2774707078933716,
				1.2774707078933716
			],
			"translation":[
				-0.005867376923561096,
				1.154038906097412,
				0.002645114902406931
			]
		},
		{
			"mesh":1,
			"name":"legs",
			"translation":[
				0,
				0.13678139448165894,
				0
			]
		},
		{
			"mesh":2,
			"name":"gun",
			"scale":[
				0.2272060513496399,
				1,
				0.26538848876953125
			],
			"translation":[
				-0.009053528308868408,
				1.948772668838501,
				-0.000937736826017499
			]
		}
	],
	"materials":[
		{
			"doubleSided":true,
			"name":"Material.011",
			"pbrMetallicRoughness":{
				"baseColorFactor":[
					0.8000473976135254,
					0.6491585969924927,
					0.0062277652323246,
					1
				],
				"metallicFactor":0.24747474491596222,
				"roughnessFactor":0.5
			}
		},
		{
			"doubleSided":true,
			"name":"Material.012",
			"pbrMetallicRoughness":{
				"baseColorFactor":[
					0.0022194443736225367,
					0.2100946456193924,
					0.8000626564025879,
					1
				],
				"metallicFactor":0.2070707082748413,
				"roughnessFactor":0.5
			}
		},
		{
			"doubleSided":true,
			"name":"Material.008",
			"pbrMetallicRoughness":{
				"baseColorFactor":[
					0.8000074625015259,
					0.7057007551193237,
					0,
					1
				],
				"metallicFactor":0.22727273404598236,
				"roughnessFactor":0.7070707082748413
			}
		},
		{
			"doubleSided":true,
			"name":"Material.009",
			"pbrMetallicRoughness":{
				"baseColorFactor":[
					0.01213911548256874,
					0.4415547549724579,
					0.8000074625015259,
					1
				],
				"metallicFactor":0,
				"roughnessFactor":0.5
			}
		}
	],
	"meshes":[
		{
			"name":"Sphere.001",
			"primitives":[
				{
					"attributes":{
						"POSITION":0,
						"NORMAL":1,
						"TEXCOORD_0":2
					},
					"indices":3,
					"material":0
				},
				{
					"attributes":{
						"POSITION":4,
						"NORMAL":5,
						"TEXCOORD_0":6
					},
					"indices":7,
					"material":1
				}
			]
		},
		{
			"name":"Plane.002",
			"primitives":[
				{
					"attributes":{
						"POSITION":8,
						"NORMAL":9,
						"TEXCOORD_0":10
					},
					"indices":11,
					"material":2
				}
			]
		},
		{
			"name":"Cylinder.001",
			"primitives":[
				{
					"attributes":{
						"POSITION":12,
						"NORMAL":13,
						"TEXCOORD_0":14
					},
					"indices":15,
					"material":3
				}
			]
		}
	],
	"accessors":[
		{
			"bufferView":0,
			"componentType":5126,
			"count":1752,
			"max":[
				0.9807851314544678,
				1.7996430397033691,
				0.9807849526405334
			],
			"min":[
				-0.9807848334312439,
				-0.3571968078613281,
				-0.9807852506637573
			],
			"type":"VEC3"
		},
		{
			"bufferView":1,
			"componentType":5126,
			"count":1752,
			"type":"VEC3"
		},
		{
			"bufferView":2,
			"componentType":5126,
			"count":1752,
			"type":"VEC2"
		},
		{
			"bufferView":3,
			"componentType":5123,
			"count":2532,
			"type":"SCALAR"
		},
		{
			"bufferView":4,
			"componentType":5126,
			"count":104,
			"max":[
				0.5652417540550232,
				1.0420682430267334,
				0.679810106754303
			],
			"min":[
				-0.6798098683357239,
				0.16479668021202087,
				-0.6798104643821716
			],
			"type":"VEC3"
		},
		{
			"bufferView":5,
			"componentType":5126,
			"count":104,
			"type":"VEC3"
		},
		{
			"bufferView":6,
			"componentType":5126,
			"count":104,
			"type":"VEC2"
		},
		{
			"bufferView":7,
			"componentType":5123,
			"count":156,
			"type":"SCALAR"
		},
		{
			"bufferView":8,
			"componentType":5126,
			"count":3432,
			"max":[
				1.3503835201263428,
				0.7750055193901062,
				1.2798343896865845
			],
			"min":[
				-1.3503835201263428,
				-0.12201212346553802,
				-1.2798343896865845
			],
			"type":"VEC3"
		},
		{
			"bufferView":9,
			"componentType":5126,
			"count":3432,
			"type":"VEC3"
		},
		{
			"bufferView":10,
			"componentType":5126,
			"count":3432,
			"type":"VEC2"
		},
		{
			"bufferView":11,
			"componentType":5123,
			"count":7224,
			"type":"SCALAR"
		},
		{
			"bufferView":12,
			"componentType":5126,
			"count":770,
			"max":[
				12.171957969665527,
				0.3810514211654663,
				1.6771173477172852
			],
			"min":[
				2.710759162902832,
				-0.3810507655143738,
				-1.6771162748336792
			],
			"type":"VEC3"
		},
		{
			"bufferView":13,
			"componentType":5126,
			"count":770,
			"type":"VEC3"
		},
		{
			"bufferView":14,
			"componentType":5126,
			"count":770,
			"type":"VEC2"
		},
		{
			"bufferView":15,
			"componentType":5123,
			"count":1332,
			"type":"SCALAR"
		}
	],
	"bufferViews":[
		{
			"buffer":0,
			"byteLength":21024,
			"byteOffset":0,
			"target":34962
		},
		{
			"buffer":0,
			"byteLength":21024,
			"byteOffset":21024,
			"target":34962
		},
		{
			"buffer":0,
			"byteLength":14016,
			"byteOffset":42048,
			"target":34962
		},
		{
			"buffer":0,
			"byteLength":5064,
			"byteOffset":56064,
			"target":34963
		},
		{
			"buffer":0,
			"byteLength":1248,
			"byteOffset":61128,
			"target":34962
		},
		{
			"buffer":0,
			"byteLength":1248,
			"byteOffset":62376,
			"target":34962
		},
		{
			"buffer":0,
			"byteLength":832,
			"byteOffset":63624,
			"target":34962
		},
		{
			"buffer":0,
			"byteLength":312,
			"byteOffset":64456,
			"target":34963
		},
		{
			"buffer":0,
			"byteLength":41184,
			"byteOffset":64768,
			"target":34962
		},
		{
			"buffer":0,
			"byteLength":41184,
			"byteOffset":105952,
			"target":34962
		},
		{
			"buffer":0,
			"byteLength":27456,
			"byteOffset":147136,
			"target":34962
		},
		{
			"buffer":0,
			"byteLength":14448,
			"byteOffset":174592,
			"target":34963
		},
		{
			"buffer":0,
			"byteLength":9240,
			"byteOffset":189040,
			"target":34962
		},
		{
			"buffer":0,
			"byteLength":9240,
			"byteOffset":198280,
			"target":34962
		},
		{
			"buffer":0,
			"byteLength":6160,
			"byteOffset":207520,
			"target":34962
		},
		{
			"buffer":0,
			"byteLength":2664,
			"byteOffset":213680,
			"target":34963
		}
	],
	"buffers":[
		{
			"byteLength":216344,
			"uri":"turret1.bin"
		}
	]
}
