{
	"asset":{
		"generator":"Khronos glTF Blender I/O v5.0.21",
		"version":"2.0"
	},
	"scene":0,
	"scenes":[
		{
			"name":"Scene",
			"nodes":[
				0,
				1,
				2,
				3,
				4,
				5
			]
		}
	],
	"nodes":[
		{
			"mesh":0,
			"name":"rail_left",
			"rotation":[
				-0.7034256458282471,
				-0.0002437657822156325,
				-0.00024063796445261687,
				0.7107688188552856
			],
			"scale":[
				-0.7342331409454346,
				-0.9999999403953552,
				-0.9999999403953552
			],
			"translation":[
				3.841942310333252,
				2.6657891273498535,
				-0.8661625981330872
			]
		},
		{
			"mesh":1,
			"name":"rail_right",
			"rotation":[
				-0.7034256458282471,
				-0.00011378955969121307,
				-0.00011200457811355591,
				0.7107688784599304
			],
			"scale":[
				-0.7342331409454346,
				-0.9999999403953552,
				-0.9999999403953552
			],
			"translation":[
				-3.8234105110168457,
				2.6657891273498535,
				-0.8661625981330872
			]
		},
		{
			"mesh":2,
			"name":"wheel_left",
			"rotation":[
				0,
				0,
				-0.7071105241775513,
				0.7071031332015991
			],
			"scale":[
				2.3587939739227295,
				0.7150385975837708,
				2.3587939739227295
			],
			"translation":[
				3.8531956672668457,
				2.4215428829193115,
				1.8203706741333008
			]
		},
		{
			"mesh":3,
			"name":"wheel_right",
			"rotation":[
				0.7071031332015991,
				-0.7071105241775513,
				0,
				1.1520172904511128e-07
			],
			"scale":[
				2.3587939739227295,
				0.7150385975837708,
				2.3587939739227295
			],
			"translation":[
				-3.8090944290161133,
				2.4215428829193115,
				6.3637847900390625
			]
		},
		{
			"mesh":4,
			"name":"gub_sphere",
			"rotation":[
				0,
				0,
				0.02535325475037098,
				0.9996785521507263
			],
			"scale":[
				3.2535760402679443,
				3.2535760402679443,
				3.2535760402679443
			],
			"translation":[
				-0.004375576972961426,
				6.476451396942139,
				3.813175678253174
			]
		},
		{
			"mesh":5,
			"name":"platform",
			"rotation":[
				0,
				0,
				-1,
				0
			],
			"scale":[
				-2.9570891857147217,
				-1,
				-4.34968376159668
			],
			"translation":[
				0,
				3.037424325942993,
				4.009187698364258
			]
		}
	],
	"materials":[
		{
			"doubleSided":true,
			"name":"Material.003",
			"pbrMetallicRoughness":{
				"baseColorFactor":[
					0.3743467926979065,
					0.3743467926979065,
					0.3743467926979065,
					1
				],
				"metallicFactor":0,
				"roughnessFactor":0.8585860133171082
			}
		},
		{
			"doubleSided":true,
			"name":"Material.002",
			"pbrMetallicRoughness":{
				"baseColorFactor":[
					0.008307449519634247,
					0.3126729130744934,
					0.02444007620215416,
					1
				],
				"metallicFactor":0,
				"roughnessFactor":0.5
			}
		},
		{
			"doubleSided":true,
			"name":"Material.001",
			"pbrMetallicRoughness":{
				"baseColorFactor":[
					0.022499930113554,
					0.7479339241981506,
					0.07517934590578079,
					1
				],
				"metallicFactor":0.32323235273361206,
				"roughnessFactor":0.24242424964904785
			}
		}
	],
	"meshes":[
		{
			"name":"Plane.012",
			"primitives":[
				{
					"attributes":{
						"POSITION":0,
						"NORMAL":1,
						"TEXCOORD_0":2
					},
					"indices":3,
					"material":0
				}
			]
		},
		{
			"name":"Plane.013",
			"primitives":[
				{
					"attributes":{
						"POSITION":4,
						"NORMAL":5,
						"TEXCOORD_0":6
					},
					"indices":3,
					"material":0
				}
			]
		},
		{
			"name":"Cylinder",
			"primitives":[
				{
					"attributes":{
						"POSITION":7,
						"NORMAL":8,
						"TEXCOORD_0":9
					},
					"indices":10,
					"material":1
				}
			]
		},
		{
			"name":"Cylinder.002",
			"primitives":[
				{
					"attributes":{
						"POSITION":11,
						"NORMAL":12,
						"TEXCOORD_0":13
					},
					"indices":10,
					"material":1
				}
			]
		},
		{
			"name":"Icosphere",
			"primitives":[
				{
					"attributes":{
						"POSITION":14,
						"NORMAL":15,
						"TEXCOORD_0":16
					},
					"indices":17,
					"material":1
				},
				{
					"attributes":{
						"POSITION":18,
						"NORMAL":19,
						"TEXCOORD_0":20
					},
					"indices":21,
					"material":2
				}
			]
		},
		{
			"name":"Cube.001",
			"primitives":[
				{
					"attributes":{
						"POSITION":22,
						"NORMAL":23,
						"TEXCOORD_0":24
					},
					"indices":25,
					"material":2
				}
			]
		}
	],
	"accessors":[
		{
			"bufferView":0,
			"componentType":5126,
			"count":1449,
			"max":[
				1.0000029802322388,
				9.99201488494873,
				2.8404996395111084
			],
			"min":[
				-1.0000073909759521,
				-0.13866651058197021,
				-2.454841136932373
			],
			"type":"VEC3"
		},
		{
			"bufferView":1,
			"componentType":5126,
			"count":1449,
			"type":"VEC3"
		},
		{
			"bufferView":2,
			"componentType":5126,
			"count":1449,
			"type":"VEC2"
		},
		{
			"bufferView":3,
			"componentType":5123,
			"count":3168,
			"type":"SCALAR"
		},
		{
			"bufferView":4,
			"componentType":5126,
			"count":1449,
			"max":[
				1.0000029802322388,
				9.99201488494873,
				2.8404996395111084
			],
			"min":[
				-1.0000073909759521,
				-0.13866651058197021,
				-2.454841136932373
			],
			"type":"VEC3"
		},
		{
			"bufferView":5,
			"componentType":5126,
			"count":1449,
			"type":"VEC3"
		},
		{
			"bufferView":6,
			"componentType":5126,
			"count":1449,
			"type":"VEC2"
		},
		{
			"bufferView":7,
			"componentType":5126,
			"count":1046,
			"max":[
				1,
				1,
				2.9399526119232178
			],
			"min":[
				-1,
				-1.000000238418579,
				-1
			],
			"type":"VEC3"
		},
		{
			"bufferView":8,
			"componentType":5126,
			"count":1046,
			"type":"VEC3"
		},
		{
			"bufferView":9,
			"componentType":5126,
			"count":1046,
			"type":"VEC2"
		},
		{
			"bufferView":10,
			"componentType":5123,
			"count":2376,
			"type":"SCALAR"
		},
		{
			"bufferView":11,
			"componentType":5126,
			"count":1046,
			"max":[
				1,
				1,
				2.9399526119232178
			],
			"min":[
				-1,
				-1.000000238418579,
				-1
			],
			"type":"VEC3"
		},
		{
			"bufferView":12,
			"componentType":5126,
			"count":1046,
			"type":"VEC3"
		},
		{
			"bufferView":13,
			"componentType":5126,
			"count":1046,
			"type":"VEC2"
		},
		{
			"bufferView":14,
			"componentType":5126,
			"count":240,
			"max":[
				0.9510578513145447,
				1,
				0.9999999403953552
			],
			"min":[
				-0.9510578513145447,
				-1,
				-0.9999999403953552
			],
			"type":"VEC3"
		},
		{
			"bufferView":15,
			"componentType":5126,
			"count":240,
			"type":"VEC3"
		},
		{
			"bufferView":16,
			"componentType":5126,
			"count":240,
			"type":"VEC2"
		},
		{
			"bufferView":17,
			"componentType":5123,
			"count":240,
			"type":"SCALAR"
		},
		{
			"bufferView":18,
			"componentType":5126,
			"count":1204,
			"max":[
				0.30869898200035095,
				0.48121699690818787,
				-0.8063008785247803
			],
			"min":[
				-0.3060092628002167,
				-0.13349130749702454,
				-2.5177149772644043
			],
			"type":"VEC3"
		},
		{
			"bufferView":19,
			"componentType":5126,
			"count":1204,
			"type":"VEC3"
		},
		{
			"bufferView":20,
			"componentType":5126,
			"count":1204,
			"type":"VEC2"
		},
		{
			"bufferView":21,
			"componentType":5123,
			"count":2148,
			"type":"SCALAR"
		},
		{
			"bufferView":22,
			"componentType":5126,
			"count":32,
			"max":[
				1,
				1,
				1
			],
			"min":[
				-1,
				-1,
				-1
			],
			"type":"VEC3"
		},
		{
			"bufferView":23,
			"componentType":5126,
			"count":32,
			"type":"VEC3"
		},
		{
			"bufferView":24,
			"componentType":5126,
			"count":32,
			"type":"VEC2"
		},
		{
			"bufferView":25,
			"componentType":5123,
			"count":60,
			"type":"SCALAR"
		}
	],
	"bufferViews":[
		{
			"buffer":0,
			"byteLength":17388,
			"byteOffset":0,
			"target":34962
		},
		{
			"buffer":0,
			"byteLength":17388,
			"byteOffset":17388,
			"target":34962
		},
		{
			"buffer":0,
			"byteLength":11592,
			"byteOffset":34776,
			"target":34962
		},
		{
			"buffer":0,
			"byteLength":6336,
			"byteOffset":46368,
			"target":34963
		},
		{
			"buffer":0,
			"byteLength":17388,
			"byteOffset":52704,
			"target":34962
		},
		{
			"buffer":0,
			"byteLength":17388,
			"byteOffset":70092,
			"target":34962
		},
		{
			"buffer":0,
			"byteLength":11592,
			"byteOffset":87480,
			"target":34962
		},
		{
			"buffer":0,
			"byteLength":12552,
			"byteOffset":99072,
			"target":34962
		},
		{
			"buffer":0,
			"byteLength":12552,
			"byteOffset":111624,
			"target":34962
		},
		{
			"buffer":0,
			"byteLength":8368,
			"byteOffset":124176,
			"target":34962
		},
		{
			"buffer":0,
			"byteLength":4752,
			"byteOffset":132544,
			"target":34963
		},
		{
			"buffer":0,
			"byteLength":12552,
			"byteOffset":137296,
			"target":34962
		},
		{
			"buffer":0,
			"byteLength":12552,
			"byteOffset":149848,
			"target":34962
		},
		{
			"buffer":0,
			"byteLength":8368,
			"byteOffset":162400,
			"target":34962
		},
		{
			"buffer":0,
			"byteLength":2880,
			"byteOffset":170768,
			"target":34962
		},
		{
			"buffer":0,
			"byteLength":2880,
			"byteOffset":173648,
			"target":34962
		},
		{
			"buffer":0,
			"byteLength":1920,
			"byteOffset":176528,
			"target":34962
		},
		{
			"buffer":0,
			"byteLength":480,
			"byteOffset":178448,
			"target":34963
		},
		{
			"buffer":0,
			"byteLength":14448,
			"byteOffset":178928,
			"target":34962
		},
		{
			"buffer":0,
			"byteLength":14448,
			"byteOffset":193376,
			"target":34962
		},
		{
			"buffer":0,
			"byteLength":9632,
			"byteOffset":207824,
			"target":34962
		},
		{
			"buffer":0,
			"byteLength":4296,
			"byteOffset":217456,
			"target":34963
		},
		{
			"buffer":0,
			"byteLength":384,
			"byteOffset":221752,
			"target":34962
		},
		{
			"buffer":0,
			"byteLength":384,
			"byteOffset":222136,
			"target":34962
		},
		{
			"buffer":0,
			"byteLength":256,
			"byteOffset":222520,
			"target":34962
		},
		{
			"buffer":0,
			"byteLength":120,
			"byteOffset":222776,
			"target":34963
		}
	],
	"buffers":[
		{
			"byteLength":222896,
			"uri":"tank1.bin"
		}
	]
}
