<svg width="1200" height="630" viewBox="0 0 1200 630" xmlns="http://www.w3.org/2000/svg"><mask id="satori_om-id"><rect x="0" y="0" width="1200" height="630" fill="#fff"/></mask><mask id="satori_om-id-0"><rect x="0" y="0" width="1200" height="630" fill="#fff"/></mask><rect x="0" y="0" width="1200" height="630" fill="#f2f2f2"/><mask id="satori_om-id-0-0"><rect x="0" y="0" width="1200" height="441" fill="#fff"/></mask><mask id="satori_om-id-0-0-0"><rect x="40" y="95" width="1120" height="36" fill="#fff"/></mask><path fill="#8e8e8e" d="M44.8 123.4Q44.4 123.9 43.6 123.9Q42.8 123.9 42.4 123.4Q41.9 123.0 41.9 122.2L41.9 122.2L41.9 104.2Q41.9 103.4 42.4 103.0Q42.8 102.5 43.6 102.5L43.6 102.5L53.8 102.5Q54.5 102.5 55.0 102.9Q55.4 103.3 55.4 103.9Q55.4 104.6 55.0 105.0Q54.5 105.4 53.8 105.4L53.8 105.4L45.2 105.4L45.2 112.0L53.1 112.0Q53.7 112.0 54.1 112.4Q54.5 112.8 54.5 113.4Q54.5 114.1 54.1 114.4Q53.7 114.8 53.1 114.8L53.1 114.8L45.2 114.8L45.2 122.2Q45.2 123.0 44.8 123.4ZM59.2 123.9L59.2 123.9Q58.5 123.9 58.1 123.5Q57.6 123.0 57.6 122.3L57.6 122.3L57.6 109.6Q57.6 108.9 58.0 108.4Q58.5 108.0 59.1 108.0L59.1 108.0Q59.8 108.0 60.2 108.4Q60.6 108.9 60.6 109.6L60.6 109.6L60.6 110.9L60.7 110.9Q61.0 109.6 62.0 108.8Q62.9 108.0 64.1 108.0L64.1 108.0Q64.9 108.0 65.3 108.4L65.3 108.4Q65.8 108.7 65.8 109.5L65.8 109.5Q65.8 110.2 65.3 110.6L65.3 110.6Q64.8 111.0 63.8 111.0L63.8 111.0Q62.3 111.0 61.5 112.0Q60.8 112.9 60.8 114.4L60.8 114.4L60.8 122.3Q60.8 123.0 60.3 123.5Q59.9 123.9 59.2 123.9ZM70.5 105.4Q69.9 105.9 69.2 105.9Q68.4 105.9 67.9 105.4Q67.3 104.9 67.3 104.1L67.3 104.1Q67.3 103.3 67.9 102.8Q68.4 102.3 69.2 102.3L69.2 102.3Q69.9 102.3 70.5 102.8Q71.0 103.3 71.0 104.1L71.0 104.1Q71.0 104.9 70.5 105.4ZM70.3 123.5Q69.9 123.9 69.2 123.9Q68.4 123.9 68.0 123.5Q67.6 123.0 67.6 122.3L67.6 122.3L67.6 109.7Q67.6 108.9 68.0 108.4Q68.4 108.0 69.2 108.0Q69.9 108.0 70.3 108.4Q70.7 108.9 70.7 109.7L70.7 109.7L70.7 122.3Q70.7 123.0 70.3 123.5ZM79.8 123.9L79.8 123.9Q76.8 123.9 75.1 121.8Q73.3 119.6 73.3 116.0Q73.3 112.3 75.0 110.2Q76.8 108.0 79.7 108.0L79.7 108.0Q81.4 108.0 82.6 108.8Q83.9 109.5 84.6 110.8L84.6 110.8L84.6 110.8L84.6 103.9Q84.6 103.1 85.1 102.7Q85.5 102.2 86.2 102.2L86.2 102.2Q86.9 102.2 87.4 102.7Q87.8 103.2 87.8 103.9L87.8 103.9L87.8 122.4Q87.8 123.1 87.4 123.5Q86.9 123.9 86.2 123.9L86.2 123.9Q85.5 123.9 85.1 123.5Q84.6 123.1 84.6 122.4L84.6 122.4L84.6 120.9L84.6 120.9Q84.0 122.3 82.7 123.1Q81.5 123.9 79.8 123.9ZM80.6 121.2L80.6 121.2Q82.4 121.2 83.5 119.8Q84.6 118.4 84.6 116.0L84.6 116.0Q84.6 113.6 83.5 112.1Q82.4 110.7 80.6 110.7L80.6 110.7Q78.7 110.7 77.6 112.1Q76.5 113.5 76.5 116.0L76.5 116.0Q76.5 118.4 77.6 119.8Q78.7 121.2 80.6 121.2ZM95.5 123.9L95.5 123.9Q93.3 123.9 91.8 122.6Q90.4 121.3 90.4 119.3L90.4 119.3Q90.4 117.3 91.9 116.1Q93.4 114.9 96.1 114.7L96.1 114.7L100.4 114.5L100.4 113.3Q100.4 112.0 99.5 111.3Q98.7 110.6 97.3 110.6L97.3 110.6Q96.1 110.6 95.3 111.0Q94.5 111.5 93.9 112.5L93.9 112.5Q93.4 113.2 92.6 113.2L92.6 113.2Q92.0 113.2 91.6 112.8Q91.2 112.4 91.2 111.9L91.2 111.9Q91.2 111.3 91.5 110.8L91.5 110.8Q92.1 109.5 93.7 108.8Q95.3 108.0 97.4 108.0L97.4 108.0Q100.2 108.0 101.9 109.4Q103.5 110.7 103.5 113.0L103.5 113.0L103.5 122.3Q103.5 123.1 103.1 123.5Q102.7 123.9 102.0 123.9L102.0 123.9Q101.3 123.9 100.9 123.5Q100.5 123.1 100.5 122.4L100.5 122.4L100.5 121.1L100.4 121.1Q99.8 122.4 98.4 123.2Q97.1 123.9 95.5 123.9ZM96.4 121.4L96.4 121.4Q98.1 121.4 99.2 120.4Q100.4 119.4 100.4 117.9L100.4 117.9L100.4 116.7L96.6 116.9Q95.1 117.0 94.4 117.6Q93.6 118.2 93.6 119.2L93.6 119.2Q93.6 120.2 94.4 120.8Q95.2 121.4 96.4 121.4ZM108.5 129.4L108.5 129.4Q107.4 129.4 106.8 129.0Q106.2 128.6 106.2 127.9L106.2 127.9Q106.2 127.4 106.5 127.1Q106.9 126.8 107.4 126.8L107.4 126.8Q107.6 126.8 107.8 126.8Q108.1 126.8 108.3 126.8L108.3 126.8Q109.9 126.8 110.6 124.7L110.6 124.7L110.9 123.8L105.7 110.3Q105.6 109.9 105.6 109.4L105.6 109.4Q105.6 108.8 106.0 108.4Q106.5 108.0 107.2 108.0L107.2 108.0Q107.8 108.0 108.1 108.3Q108.5 108.5 108.7 109.2L108.7 109.2L112.6 120.8L112.7 120.8L116.6 109.2Q116.8 108.5 117.2 108.3Q117.5 108.0 118.1 108.0L118.1 108.0Q118.8 108.0 119.2 108.4Q119.7 108.8 119.7 109.4L119.7 109.4Q119.7 109.8 119.5 110.3L119.5 110.3L114.2 124.4Q113.1 127.2 111.9 128.3Q110.6 129.4 108.5 129.4ZM124.1 120.1L124.1 120.1Q124.8 120.1 125.2 120.5Q125.6 120.8 125.6 121.4L125.6 121.4Q125.6 121.8 125.5 122.3L125.5 122.3L124.2 127.3Q123.9 128.4 122.9 128.4L122.9 128.4Q122.3 128.4 122.0 128.1Q121.6 127.7 121.6 127.2L121.6 127.2Q121.6 127.1 121.7 126.8L121.7 126.8L122.6 121.4Q122.8 120.1 124.1 120.1Z M149.0 123.7L137.3 123.7Q136.6 123.7 136.2 123.3Q135.7 122.9 135.7 122.3L135.7 122.3Q135.7 121.8 135.9 121.5Q136.1 121.1 136.7 120.6L136.7 120.6L143.3 113.9Q145.3 111.8 146.0 110.7Q146.7 109.6 146.7 108.3L146.7 108.3Q146.7 106.8 145.6 105.8Q144.6 104.8 143.0 104.8L143.0 104.8Q139.9 104.8 138.8 108.0L138.8 108.0Q138.5 108.5 138.2 108.8Q137.9 109.0 137.3 109.0L137.3 109.0Q136.6 109.0 136.2 108.6Q135.8 108.3 135.8 107.6L135.8 107.6Q135.8 107.3 135.9 107.0L135.9 107.0Q136.1 106.1 136.6 105.3Q137.2 104.4 138.1 103.7Q138.9 103.0 140.2 102.6Q141.5 102.1 143.0 102.1L143.0 102.1Q146.1 102.1 148.0 103.8Q149.9 105.5 149.9 108.1L149.9 108.1Q149.9 109.9 148.9 111.5Q148.0 113.0 145.2 115.8L145.2 115.8L140.2 120.8L140.2 120.9L149.0 120.9Q149.6 120.9 150.0 121.3Q150.4 121.7 150.4 122.3L150.4 122.3Q150.4 122.9 150.0 123.3Q149.6 123.7 149.0 123.7L149.0 123.7ZM160.1 123.9L160.1 123.9Q159.4 123.9 159.0 123.5Q158.5 123.0 158.5 122.3L158.5 122.3L158.5 105.9L158.4 105.9L154.8 108.4Q154.3 108.7 153.8 108.7L153.8 108.7Q153.3 108.7 152.9 108.4Q152.6 108.0 152.6 107.5L152.6 107.5Q152.6 106.7 153.4 106.1L153.4 106.1L157.8 103.0Q158.4 102.6 158.9 102.4Q159.3 102.2 159.9 102.2L159.9 102.2Q160.7 102.2 161.2 102.7Q161.7 103.2 161.7 104.1L161.7 104.1L161.7 122.3Q161.7 123.0 161.3 123.5Q160.8 123.9 160.1 123.9Z M176.0 123.5Q175.6 123.9 174.9 123.9Q174.1 123.9 173.7 123.5Q173.3 123.0 173.3 122.2L173.3 122.2L173.3 104.1Q173.3 103.2 173.7 102.8Q174.2 102.3 175.0 102.3L175.0 102.3Q175.6 102.3 176.0 102.5Q176.4 102.7 176.8 103.3L176.8 103.3L187.2 118.1L187.3 118.1L187.3 104.0Q187.3 103.2 187.7 102.7Q188.2 102.3 188.9 102.3L188.9 102.3Q189.6 102.3 190.1 102.7Q190.5 103.2 190.5 104.0L190.5 104.0L190.5 122.2Q190.5 123.0 190.0 123.5Q189.6 123.9 188.8 123.9L188.8 123.9Q188.2 123.9 187.8 123.7Q187.4 123.5 187.0 122.9L187.0 122.9L176.6 108.1L176.5 108.1L176.5 122.2Q176.5 123.0 176.0 123.5ZM206.0 121.8Q204.0 124.0 200.6 124.0Q197.3 124.0 195.3 121.8Q193.3 119.7 193.3 116.0L193.3 116.0Q193.3 112.3 195.3 110.1Q197.3 108.0 200.6 108.0Q204.0 108.0 206.0 110.1Q207.9 112.3 207.9 116.0L207.9 116.0Q207.9 119.7 206.0 121.8ZM200.6 121.3L200.6 121.3Q202.5 121.3 203.6 119.9Q204.7 118.5 204.7 116.0L204.7 116.0Q204.7 113.4 203.6 112.0Q202.5 110.6 200.6 110.6Q198.8 110.6 197.7 112.0Q196.5 113.4 196.5 116.0L196.5 116.0Q196.5 118.5 197.7 119.9Q198.8 121.3 200.6 121.3ZM216.3 123.9L216.3 123.9Q215.5 123.9 215.0 123.6Q214.5 123.2 214.1 122.3L214.1 122.3L209.6 110.3Q209.4 109.8 209.4 109.4L209.4 109.4Q209.4 108.8 209.8 108.4Q210.3 108.0 211.0 108.0L211.0 108.0Q212.1 108.0 212.5 109.2L212.5 109.2L216.3 120.6L216.4 120.6L220.2 109.2Q220.6 108.0 221.7 108.0L221.7 108.0Q222.3 108.0 222.8 108.4Q223.2 108.8 223.2 109.4L223.2 109.4Q223.2 109.9 223.1 110.3L223.1 110.3L218.5 122.3Q218.2 123.2 217.7 123.6Q217.1 123.9 216.3 123.9ZM232.0 124.0L232.0 124.0Q228.6 124.0 226.6 121.9Q224.7 119.8 224.7 116.0L224.7 116.0Q224.7 112.4 226.6 110.2Q228.6 108.0 231.8 108.0L231.8 108.0Q234.9 108.0 236.8 110.0Q238.8 112.0 238.8 115.1L238.8 115.1Q238.8 115.9 238.3 116.3Q237.9 116.8 237.2 116.8L237.2 116.8L227.9 116.8L227.9 116.8Q227.9 118.9 229.0 120.2Q230.1 121.4 232.0 121.4L232.0 121.4Q233.3 121.4 234.2 120.9Q235.1 120.4 236.0 119.2L236.0 119.2Q236.4 118.6 237.1 118.6L237.1 118.6Q237.7 118.6 238.0 119.0Q238.4 119.3 238.4 119.9L238.4 119.9Q238.4 120.3 238.2 120.8L238.2 120.8Q237.4 122.3 235.8 123.1Q234.2 124.0 232.0 124.0ZM227.9 114.5L227.9 114.5L235.6 114.5Q235.5 112.7 234.5 111.6Q233.5 110.5 231.8 110.5L231.8 110.5Q230.2 110.5 229.1 111.6Q228.0 112.7 227.9 114.5ZM243.9 123.5Q243.5 123.9 242.8 123.9Q242.1 123.9 241.6 123.5Q241.2 123.0 241.2 122.3L241.2 122.3L241.2 109.6Q241.2 108.9 241.6 108.4Q242.0 108.0 242.7 108.0Q243.4 108.0 243.8 108.4Q244.2 108.8 244.2 109.6L244.2 109.6L244.2 110.8L244.3 110.8Q244.8 109.5 246.0 108.8Q247.1 108.0 248.7 108.0L248.7 108.0Q250.3 108.0 251.4 108.8Q252.5 109.6 253.0 111.0L253.0 111.0L253.0 111.0Q253.6 109.6 254.9 108.8Q256.2 108.0 257.9 108.0L257.9 108.0Q260.1 108.0 261.5 109.4Q262.9 110.8 262.9 113.1L262.9 113.1L262.9 122.3Q262.9 123.0 262.5 123.5Q262.0 123.9 261.3 123.9Q260.6 123.9 260.1 123.5Q259.7 123.0 259.7 122.3L259.7 122.3L259.7 113.8Q259.7 112.3 258.9 111.5Q258.2 110.7 256.8 110.7Q255.4 110.7 254.5 111.6Q253.6 112.6 253.6 114.0L253.6 114.0L253.6 122.3Q253.6 123.0 253.2 123.5Q252.8 123.9 252.0 123.9Q251.3 123.9 250.9 123.5Q250.5 123.0 250.5 122.3L250.5 122.3L250.5 113.6Q250.5 112.3 249.7 111.5Q248.9 110.7 247.6 110.7L247.6 110.7Q246.2 110.7 245.3 111.7Q244.4 112.6 244.4 114.1L244.4 114.1L244.4 122.3Q244.4 123.0 243.9 123.5ZM267.6 123.9L267.6 123.9Q266.9 123.9 266.5 123.5Q266.1 123.1 266.1 122.4L266.1 122.4L266.1 103.9Q266.1 103.2 266.5 102.7Q266.9 102.2 267.6 102.2Q268.3 102.2 268.8 102.7Q269.2 103.2 269.2 103.9L269.2 103.9L269.2 110.9L269.3 110.9Q270.0 109.5 271.3 108.8Q272.5 108.0 274.2 108.0L274.2 108.0Q277.1 108.0 278.8 110.2Q280.6 112.3 280.6 116.0L280.6 116.0Q280.6 119.6 278.8 121.8Q277.1 123.9 274.1 123.9L274.1 123.9Q272.5 123.9 271.2 123.2Q269.9 122.4 269.2 121.0L269.2 121.0L269.1 121.0L269.1 122.4Q269.1 123.1 268.7 123.5Q268.3 123.9 267.6 123.9ZM273.3 121.2L273.3 121.2Q275.2 121.2 276.3 119.8Q277.3 118.4 277.3 116.0L277.3 116.0Q277.3 113.5 276.2 112.1Q275.2 110.7 273.3 110.7L273.3 110.7Q271.5 110.7 270.3 112.1Q269.2 113.6 269.2 116.0L269.2 116.0Q269.2 118.3 270.3 119.8Q271.5 121.2 273.3 121.2ZM289.7 124.0L289.7 124.0Q286.2 124.0 284.3 121.9Q282.3 119.8 282.3 116.0L282.3 116.0Q282.3 112.4 284.3 110.2Q286.2 108.0 289.5 108.0L289.5 108.0Q292.6 108.0 294.5 110.0Q296.4 112.0 296.4 115.1L296.4 115.1Q296.4 115.9 296.0 116.3Q295.6 116.8 294.9 116.8L294.9 116.8L285.5 116.8L285.5 116.8Q285.5 118.9 286.6 120.2Q287.7 121.4 289.6 121.4L289.6 121.4Q290.9 121.4 291.8 120.9Q292.7 120.4 293.6 119.2L293.6 119.2Q294.1 118.6 294.7 118.6L294.7 118.6Q295.3 118.6 295.7 119.0Q296.1 119.3 296.1 119.9L296.1 119.9Q296.1 120.3 295.8 120.8L295.8 120.8Q295.1 122.3 293.5 123.1Q291.9 124.0 289.7 124.0ZM285.6 114.5L285.6 114.5L293.3 114.5Q293.2 112.7 292.2 111.6Q291.1 110.5 289.5 110.5L289.5 110.5Q287.8 110.5 286.8 111.6Q285.7 112.7 285.6 114.5ZM300.4 123.9L300.4 123.9Q299.7 123.9 299.3 123.5Q298.9 123.0 298.9 122.3L298.9 122.3L298.9 109.6Q298.9 108.9 299.3 108.4Q299.7 108.0 300.4 108.0L300.4 108.0Q301.0 108.0 301.5 108.4Q301.9 108.9 301.9 109.6L301.9 109.6L301.9 110.9L301.9 110.9Q302.3 109.6 303.2 108.8Q304.2 108.0 305.3 108.0L305.3 108.0Q306.2 108.0 306.6 108.4L306.6 108.4Q307.0 108.7 307.0 109.5L307.0 109.5Q307.0 110.2 306.5 110.6L306.5 110.6Q306.1 111.0 305.1 111.0L305.1 111.0Q303.5 111.0 302.8 112.0Q302.0 112.9 302.0 114.4L302.0 114.4L302.0 122.3Q302.0 123.0 301.6 123.5Q301.2 123.9 300.4 123.9Z M328.0 123.7L316.4 123.7Q315.6 123.7 315.2 123.3Q314.8 122.9 314.8 122.3L314.8 122.3Q314.8 121.8 315.0 121.5Q315.2 121.1 315.7 120.6L315.7 120.6L322.3 113.9Q324.4 111.8 325.1 110.7Q325.7 109.6 325.7 108.3L325.7 108.3Q325.7 106.8 324.7 105.8Q323.7 104.8 322.1 104.8L322.1 104.8Q318.9 104.8 317.8 108.0L317.8 108.0Q317.6 108.5 317.3 108.8Q316.9 109.0 316.3 109.0L316.3 109.0Q315.7 109.0 315.3 108.6Q314.9 108.3 314.9 107.6L314.9 107.6Q314.9 107.3 315.0 107.0L315.0 107.0Q315.2 106.1 315.7 105.3Q316.3 104.4 317.1 103.7Q318.0 103.0 319.3 102.6Q320.6 102.1 322.1 102.1L322.1 102.1Q325.1 102.1 327.1 103.8Q329.0 105.5 329.0 108.1L329.0 108.1Q329.0 109.9 328.0 111.5Q327.0 113.0 324.3 115.8L324.3 115.8L319.3 120.8L319.3 120.9L328.0 120.9Q328.7 120.9 329.1 121.3Q329.5 121.7 329.5 122.3L329.5 122.3Q329.5 122.9 329.1 123.3Q328.7 123.7 328.0 123.7L328.0 123.7ZM345.9 121.1Q343.8 124.1 340.0 124.1Q336.2 124.1 334.0 121.1Q331.9 118.2 331.9 113.1L331.9 113.1Q331.9 108.0 334.0 105.1Q336.2 102.1 340.0 102.1L340.0 102.1Q343.7 102.1 345.9 105.1Q348.0 108.0 348.0 113.1L348.0 113.1Q348.0 118.1 345.9 121.1ZM340.0 121.3L340.0 121.3Q342.2 121.3 343.5 119.1Q344.7 116.9 344.7 113.1L344.7 113.1Q344.7 109.3 343.5 107.1Q342.2 104.9 340.0 104.9Q337.7 104.9 336.5 107.1Q335.2 109.3 335.2 113.1L335.2 113.1Q335.2 116.9 336.4 119.1Q337.7 121.3 340.0 121.3ZM364.1 123.7L352.5 123.7Q351.7 123.7 351.3 123.3Q350.9 122.9 350.9 122.3L350.9 122.3Q350.9 121.8 351.1 121.5Q351.3 121.1 351.8 120.6L351.8 120.6L358.4 113.9Q360.5 111.8 361.2 110.7Q361.8 109.6 361.8 108.3L361.8 108.3Q361.8 106.8 360.8 105.8Q359.8 104.8 358.2 104.8L358.2 104.8Q355.0 104.8 353.9 108.0L353.9 108.0Q353.7 108.5 353.3 108.8Q353.0 109.0 352.4 109.0L352.4 109.0Q351.8 109.0 351.4 108.6Q351.0 108.3 351.0 107.6L351.0 107.6Q351.0 107.3 351.1 107.0L351.1 107.0Q351.3 106.1 351.8 105.3Q352.3 104.4 353.2 103.7Q354.1 103.0 355.4 102.6Q356.7 102.1 358.2 102.1L358.2 102.1Q361.2 102.1 363.1 103.8Q365.1 105.5 365.1 108.1L365.1 108.1Q365.1 109.9 364.1 111.5Q363.1 113.0 360.4 115.8L360.4 115.8L355.4 120.8L355.4 120.9L364.1 120.9Q364.8 120.9 365.2 121.3Q365.6 121.7 365.6 122.3L365.6 122.3Q365.6 122.9 365.2 123.3Q364.8 123.7 364.1 123.7L364.1 123.7ZM375.9 124.1L375.9 124.1Q373.5 124.1 371.6 123.0Q369.7 121.9 369.0 120.2L369.0 120.2Q368.7 119.5 368.7 118.8L368.7 118.8Q368.7 118.1 369.0 117.7Q369.4 117.3 370.1 117.3L370.1 117.3Q370.6 117.3 371.0 117.6Q371.3 117.8 371.6 118.4L371.6 118.4Q372.1 119.8 373.2 120.5Q374.3 121.3 375.9 121.3L375.9 121.3Q377.9 121.3 379.2 120.0Q380.4 118.8 380.4 116.8L380.4 116.8Q380.4 114.8 379.2 113.6Q377.9 112.4 375.9 112.4L375.9 112.4Q373.8 112.4 372.5 113.7L372.5 113.7Q371.8 114.5 371.4 114.6Q371.1 114.8 370.5 114.8L370.5 114.8Q369.7 114.8 369.3 114.4Q368.9 113.9 368.9 113.2L368.9 113.2L368.9 112.9L369.6 104.8Q369.7 103.6 370.3 103.0Q370.9 102.5 372.2 102.5L372.2 102.5L381.1 102.5Q381.8 102.5 382.2 102.9Q382.6 103.3 382.6 103.9Q382.6 104.5 382.2 104.9Q381.8 105.3 381.1 105.3L381.1 105.3L372.5 105.3L371.9 111.9L371.9 111.9Q372.6 110.9 373.9 110.3Q375.1 109.8 376.7 109.8L376.7 109.8Q379.8 109.8 381.7 111.7Q383.7 113.6 383.7 116.7L383.7 116.7Q383.7 120.0 381.5 122.0Q379.3 124.1 375.9 124.1Z "/><mask id="satori_om-id-0-0-1"><rect x="40" y="176" width="1120" height="165" fill="#fff"/></mask><path fill="#224d67" d="M45.6 239.1L45.6 239.1Q43.8 239.1 42.8 238.1Q41.8 237.2 41.8 235.6L41.8 235.6Q41.8 234.6 42.3 233.3L42.3 233.3L54.5 199.9Q55.3 197.8 56.6 196.8Q58.0 195.8 60.0 195.8L60.0 195.8Q62.1 195.8 63.4 196.8Q64.8 197.7 65.5 199.9L65.5 199.9L77.9 233.3Q78.3 234.7 78.3 235.6L78.3 235.6Q78.3 237.1 77.3 238.1Q76.2 239.1 74.6 239.1L74.6 239.1Q73.0 239.1 72.1 238.3Q71.2 237.6 70.7 235.9L70.7 235.9L67.9 227.8L52.1 227.8L49.3 235.8Q48.8 237.6 47.9 238.3Q47.0 239.1 45.6 239.1ZM59.9 203.8L53.9 221.8L66.1 221.8L60.1 203.8L59.9 203.8ZM94.0 239.1L94.0 239.1Q88.9 239.1 85.9 236.0Q82.9 233.0 82.9 227.6L82.9 227.6L82.9 210.7Q82.9 209.0 83.9 207.9Q84.9 206.9 86.6 206.9Q88.2 206.9 89.2 207.9Q90.2 209.0 90.2 210.8L90.2 210.8L90.2 226.1Q90.2 229.5 91.8 231.2Q93.4 233.0 96.5 233.0L96.5 233.0Q99.6 233.0 101.5 230.9Q103.3 228.9 103.3 225.5L103.3 225.5L103.3 210.7Q103.3 209.0 104.4 207.9Q105.4 206.9 107.0 206.9L107.0 206.9Q108.6 206.9 109.6 207.9Q110.6 209.0 110.6 210.8L110.6 210.8L110.6 235.5Q110.6 237.2 109.7 238.2Q108.7 239.2 107.1 239.2L107.1 239.2Q105.5 239.2 104.6 238.2Q103.6 237.2 103.6 235.5L103.6 235.5L103.6 233.2L103.5 233.2Q100.9 239.1 94.0 239.1ZM118.6 230.9L118.6 230.9L118.6 213.1L116.6 213.1Q115.3 213.1 114.5 212.4Q113.7 211.6 113.7 210.3L113.7 210.3Q113.7 209.0 114.5 208.3Q115.3 207.5 116.6 207.5L116.6 207.5L118.6 207.5L118.6 203.4Q118.6 201.6 119.6 200.6Q120.6 199.6 122.3 199.6L122.3 199.6Q123.9 199.6 124.9 200.6Q125.9 201.6 125.9 203.4L125.9 203.4L125.9 207.5L129.3 207.5Q130.6 207.5 131.4 208.3Q132.2 209.0 132.2 210.3L132.2 210.3Q132.2 211.6 131.4 212.4Q130.6 213.1 129.3 213.1L129.3 213.1L125.9 213.1L125.9 229.3Q125.9 231.1 126.6 231.9Q127.2 232.7 128.8 232.9L128.8 232.9L129.4 232.9Q132.3 233.2 132.3 235.6L132.3 235.6Q132.3 237.2 130.9 238.1Q129.6 238.9 127.1 238.9L127.1 238.9L126.8 238.9Q118.6 238.9 118.6 230.9ZM161.4 234.9Q157.3 239.2 150.4 239.2Q143.6 239.2 139.5 234.9Q135.4 230.6 135.4 223.1L135.4 223.1Q135.4 215.6 139.5 211.2Q143.6 206.9 150.4 206.9L150.4 206.9Q157.3 206.9 161.4 211.2Q165.5 215.6 165.5 223.1L165.5 223.1Q165.5 230.6 161.4 234.9ZM144.9 230.7Q146.9 233.4 150.4 233.4Q154.0 233.4 156.0 230.7Q158.1 228.0 158.1 223.1L158.1 223.1Q158.1 218.2 156.0 215.4Q154.0 212.7 150.4 212.7L150.4 212.7Q147.0 212.7 144.9 215.4Q142.8 218.2 142.8 223.1L142.8 223.1Q142.8 228.0 144.9 230.7ZM173.8 239.2L173.8 239.2Q172.1 239.2 171.1 238.2Q170.2 237.1 170.2 235.3L170.2 235.3L170.2 210.6Q170.2 208.9 171.1 207.9Q172.1 206.9 173.7 206.9Q175.2 206.9 176.2 207.9Q177.2 208.9 177.2 210.6L177.2 210.6L177.2 212.9L177.3 212.9Q178.3 210.2 180.7 208.5Q183.0 206.9 186.2 206.9L186.2 206.9Q189.4 206.9 191.7 208.6Q194.0 210.2 194.8 213.2L194.8 213.2L195.0 213.2Q196.1 210.3 198.7 208.6Q201.3 206.9 204.7 206.9L204.7 206.9Q209.3 206.9 212.0 209.8Q214.8 212.6 214.8 217.3L214.8 217.3L214.8 235.3Q214.8 237.1 213.8 238.1Q212.8 239.2 211.2 239.2L211.2 239.2Q209.5 239.2 208.5 238.1Q207.5 237.1 207.5 235.3L207.5 235.3L207.5 219.1Q207.5 216.2 206.1 214.6Q204.6 213.1 202.0 213.1L202.0 213.1Q199.3 213.1 197.7 214.8Q196.0 216.6 196.0 219.4L196.0 219.4L196.0 235.3Q196.0 237.1 195.1 238.2Q194.1 239.2 192.5 239.2L192.5 239.2Q190.8 239.2 189.9 238.2Q188.9 237.1 188.9 235.3L188.9 235.3L188.9 218.7Q188.9 216.1 187.5 214.6Q186.0 213.1 183.4 213.1L183.4 213.1Q180.8 213.1 179.1 214.9Q177.5 216.8 177.5 219.6L177.5 219.6L177.5 235.3Q177.5 237.1 176.5 238.1Q175.4 239.2 173.8 239.2ZM229.8 239.1L229.8 239.1Q225.2 239.1 222.3 236.5Q219.4 233.9 219.4 229.7L219.4 229.7Q219.4 225.6 222.4 223.2Q225.5 220.8 231.2 220.4L231.2 220.4L239.4 219.9L239.4 217.7Q239.4 215.3 237.9 213.9Q236.3 212.6 233.6 212.6L233.6 212.6Q231.5 212.6 230.0 213.4Q228.5 214.2 227.1 216.2L227.1 216.2Q226.0 217.7 224.2 217.7L224.2 217.7Q222.8 217.7 221.9 216.9Q221.1 216.1 221.1 214.8L221.1 214.8Q221.1 213.8 221.6 212.8L221.6 212.8Q222.8 210.1 226.1 208.5Q229.5 206.9 233.9 206.9L233.9 206.9Q239.7 206.9 243.2 209.7Q246.6 212.5 246.6 217.2L246.6 217.2L246.6 235.5Q246.6 237.2 245.6 238.2Q244.7 239.2 243.1 239.2L243.1 239.2Q241.6 239.2 240.6 238.3Q239.7 237.4 239.6 235.8L239.6 235.8L239.6 233.6L239.5 233.6Q238.1 236.1 235.5 237.6Q232.8 239.1 229.8 239.1ZM232.0 233.6L232.0 233.6Q235.1 233.6 237.3 231.7Q239.4 229.8 239.4 227.1L239.4 227.1L239.4 224.7L232.2 225.1Q229.6 225.3 228.1 226.4Q226.7 227.6 226.7 229.4L226.7 229.4Q226.7 231.3 228.1 232.4Q229.6 233.6 232.0 233.6ZM254.5 230.9L254.5 230.9L254.5 213.1L252.5 213.1Q251.2 213.1 250.4 212.4Q249.6 211.6 249.6 210.3L249.6 210.3Q249.6 209.0 250.4 208.3Q251.2 207.5 252.5 207.5L252.5 207.5L254.5 207.5L254.5 203.4Q254.5 201.6 255.5 200.6Q256.5 199.6 258.2 199.6L258.2 199.6Q259.8 199.6 260.8 200.6Q261.8 201.6 261.8 203.4L261.8 203.4L261.8 207.5L265.2 207.5Q266.6 207.5 267.3 208.3Q268.1 209.0 268.1 210.3L268.1 210.3Q268.1 211.6 267.3 212.4Q266.5 213.1 265.2 213.1L265.2 213.1L261.8 213.1L261.8 229.3Q261.8 231.1 262.5 231.9Q263.2 232.7 264.7 232.9L264.7 232.9L265.3 232.9Q268.2 233.2 268.2 235.6L268.2 235.6Q268.2 237.2 266.8 238.1Q265.5 238.9 263.0 238.9L263.0 238.9L262.7 238.9Q254.5 238.9 254.5 230.9ZM286.4 239.2L286.4 239.2Q279.3 239.2 275.3 235.0Q271.3 230.7 271.3 223.2L271.3 223.2Q271.3 215.7 275.3 211.3Q279.3 206.9 286.0 206.9L286.0 206.9Q292.4 206.9 296.3 210.9Q300.3 215.0 300.3 221.4L300.3 221.4Q300.3 223.0 299.4 223.9Q298.5 224.8 296.9 224.8L296.9 224.8L278.6 224.8L278.6 225.0Q278.6 228.9 280.7 231.3Q282.8 233.6 286.4 233.6L286.4 233.6Q288.8 233.6 290.6 232.6Q292.4 231.7 294.1 229.4L294.1 229.4Q295.2 228.3 296.6 228.3L296.6 228.3Q297.8 228.3 298.7 229.0Q299.5 229.8 299.5 231.1L299.5 231.1Q299.5 231.9 299.0 232.9L299.0 232.9Q297.5 235.9 294.2 237.5Q290.8 239.2 286.4 239.2ZM278.7 220.0L278.7 220.0L293.2 220.0Q293.0 216.6 291.1 214.6Q289.1 212.5 286.0 212.5Q283.0 212.5 280.9 214.6Q278.9 216.7 278.7 220.0ZM316.6 239.1L316.6 239.1Q310.7 239.1 307.2 234.7Q303.7 230.4 303.7 223.0L303.7 223.0Q303.7 215.7 307.2 211.3Q310.7 207.0 316.6 207.0L316.6 207.0Q319.9 207.0 322.4 208.5Q324.9 210.1 326.2 212.7L326.2 212.7L326.4 212.7L326.4 199.6Q326.4 197.7 327.4 196.7Q328.4 195.7 330.0 195.7Q331.7 195.7 332.7 196.7Q333.7 197.7 333.7 199.6L333.7 199.6L333.7 235.5Q333.7 237.2 332.7 238.2Q331.7 239.2 330.1 239.2L330.1 239.2Q328.4 239.2 327.4 238.2Q326.4 237.2 326.4 235.5L326.4 235.5L326.4 233.1L326.2 233.1Q325.1 235.9 322.6 237.5Q320.1 239.1 316.6 239.1ZM318.8 233.1L318.8 233.1Q322.2 233.1 324.3 230.4Q326.4 227.7 326.4 223.1L326.4 223.1Q326.4 218.5 324.3 215.7Q322.2 213.0 318.8 213.0L318.8 213.0Q315.3 213.0 313.2 215.7Q311.2 218.4 311.2 223.1L311.2 223.1Q311.2 227.7 313.2 230.4Q315.2 233.1 318.8 233.1Z M353.8 230.9L353.8 230.9L353.8 213.1L351.9 213.1Q350.5 213.1 349.7 212.4Q348.9 211.6 348.9 210.3L348.9 210.3Q348.9 209.0 349.7 208.3Q350.5 207.5 351.9 207.5L351.9 207.5L353.8 207.5L353.8 203.4Q353.8 201.6 354.8 200.6Q355.8 199.6 357.5 199.6L357.5 199.6Q359.2 199.6 360.1 200.6Q361.1 201.6 361.1 203.4L361.1 203.4L361.1 207.5L364.5 207.5Q365.9 207.5 366.6 208.3Q367.4 209.0 367.4 210.3L367.4 210.3Q367.4 211.6 366.6 212.4Q365.8 213.1 364.5 213.1L364.5 213.1L361.1 213.1L361.1 229.3Q361.1 231.1 361.8 231.9Q362.5 232.7 364.1 232.9L364.1 232.9L364.6 232.9Q367.5 233.2 367.5 235.6L367.5 235.6Q367.5 237.2 366.2 238.1Q364.8 238.9 362.3 238.9L362.3 238.9L362.0 238.9Q353.8 238.9 353.8 230.9ZM378.4 238.2Q377.4 239.2 375.8 239.2Q374.2 239.2 373.1 238.2Q372.1 237.1 372.1 235.3L372.1 235.3L372.1 199.5Q372.1 197.7 373.1 196.7Q374.1 195.7 375.7 195.7L375.7 195.7Q377.4 195.7 378.4 196.7Q379.3 197.7 379.3 199.5L379.3 199.5L379.3 212.9L379.5 212.9Q380.8 210.0 383.3 208.5Q385.8 206.9 389.3 206.9L389.3 206.9Q394.4 206.9 397.3 210.1Q400.2 213.2 400.2 218.6L400.2 218.6L400.2 235.3Q400.2 237.1 399.2 238.2Q398.2 239.2 396.5 239.2Q394.9 239.2 393.9 238.2Q392.9 237.1 392.9 235.3L392.9 235.3L392.9 220.1Q392.9 216.8 391.3 214.9Q389.6 213.1 386.5 213.1L386.5 213.1Q383.2 213.1 381.3 215.2Q379.4 217.3 379.4 220.7L379.4 220.7L379.4 235.3Q379.4 237.1 378.4 238.2ZM412.3 238.1Q411.3 239.2 409.6 239.2Q408.0 239.2 407.0 238.1Q406.0 237.1 406.0 235.3L406.0 235.3L406.0 210.6Q406.0 208.9 407.0 207.9Q407.9 206.9 409.5 206.9L409.5 206.9Q411.0 206.9 412.0 207.9Q412.9 208.9 412.9 210.6L412.9 210.6L412.9 213.0L413.1 213.0Q413.7 210.3 415.6 208.6Q417.4 207.0 419.7 207.0L419.7 207.0Q421.4 207.0 422.3 207.8L422.3 207.8Q423.3 208.6 423.3 210.4L423.3 210.4Q423.3 212.1 422.3 213.0L422.3 213.0Q421.2 213.9 419.0 214.0L419.0 214.0Q413.3 214.0 413.3 220.4L413.3 220.4L413.3 235.3Q413.3 237.1 412.3 238.1ZM440.4 239.2L440.4 239.2Q433.3 239.2 429.3 235.0Q425.3 230.7 425.3 223.2L425.3 223.2Q425.3 215.7 429.3 211.3Q433.3 206.9 440.0 206.9L440.0 206.9Q446.4 206.9 450.3 210.9Q454.3 215.0 454.3 221.4L454.3 221.4Q454.3 223.0 453.4 223.9Q452.5 224.8 450.9 224.8L450.9 224.8L432.6 224.8L432.6 225.0Q432.6 228.9 434.7 231.3Q436.8 233.6 440.4 233.6L440.4 233.6Q442.8 233.6 444.6 232.6Q446.4 231.7 448.1 229.4L448.1 229.4Q449.2 228.3 450.6 228.3L450.6 228.3Q451.9 228.3 452.7 229.0Q453.5 229.8 453.5 231.1L453.5 231.1Q453.5 231.9 453.0 232.9L453.0 232.9Q451.5 235.9 448.2 237.5Q444.9 239.2 440.4 239.2ZM432.7 220.0L432.7 220.0L447.2 220.0Q447.1 216.6 445.1 214.6Q443.1 212.5 440.0 212.5Q437.0 212.5 434.9 214.6Q432.9 216.7 432.7 220.0ZM468.1 239.1L468.1 239.1Q463.6 239.1 460.7 236.5Q457.7 233.9 457.7 229.7L457.7 229.7Q457.7 225.6 460.8 223.2Q463.9 220.8 469.6 220.4L469.6 220.4L477.8 219.9L477.8 217.7Q477.8 215.3 476.2 213.9Q474.7 212.6 472.0 212.6L472.0 212.6Q469.8 212.6 468.3 213.4Q466.8 214.2 465.5 216.2L465.5 216.2Q464.4 217.7 462.5 217.7L462.5 217.7Q461.2 217.7 460.3 216.9Q459.4 216.1 459.4 214.8L459.4 214.8Q459.4 213.8 459.9 212.8L459.9 212.8Q461.1 210.1 464.5 208.5Q467.8 206.9 472.3 206.9L472.3 206.9Q478.0 206.9 481.5 209.7Q485.0 212.5 485.0 217.2L485.0 217.2L485.0 235.5Q485.0 237.2 484.0 238.2Q483.0 239.2 481.4 239.2L481.4 239.2Q479.9 239.2 479.0 238.3Q478.0 237.4 478.0 235.8L478.0 235.8L478.0 233.6L477.8 233.6Q476.5 236.1 473.8 237.6Q471.2 239.1 468.1 239.1ZM470.3 233.6L470.3 233.6Q473.4 233.6 475.6 231.7Q477.8 229.8 477.8 227.1L477.8 227.1L477.8 224.7L470.6 225.1Q467.9 225.3 466.5 226.4Q465.0 227.6 465.0 229.4L465.0 229.4Q465.0 231.3 466.5 232.4Q467.9 233.6 470.3 233.6ZM492.9 230.9L492.9 230.9L492.9 213.1L490.9 213.1Q489.6 213.1 488.8 212.4Q488.0 211.6 488.0 210.3L488.0 210.3Q488.0 209.0 488.8 208.3Q489.5 207.5 490.9 207.5L490.9 207.5L492.9 207.5L492.9 203.4Q492.9 201.6 493.9 200.6Q494.8 199.6 496.5 199.6L496.5 199.6Q498.2 199.6 499.2 200.6Q500.2 201.6 500.2 203.4L500.2 203.4L500.2 207.5L503.5 207.5Q504.9 207.5 505.7 208.3Q506.5 209.0 506.5 210.3L506.5 210.3Q506.5 211.6 505.7 212.4Q504.9 213.1 503.5 213.1L503.5 213.1L500.2 213.1L500.2 229.3Q500.2 231.1 500.8 231.9Q501.5 232.7 503.1 232.9L503.1 232.9L503.6 232.9Q506.6 233.2 506.6 235.6L506.6 235.6Q506.6 237.2 505.2 238.1Q503.9 238.9 501.3 238.9L501.3 238.9L501.0 238.9Q492.9 238.9 492.9 230.9Z M534.6 239.1L534.6 239.1Q528.7 239.1 525.2 234.7Q521.7 230.4 521.7 223.0L521.7 223.0Q521.7 215.7 525.2 211.3Q528.7 207.0 534.6 207.0L534.6 207.0Q537.9 207.0 540.4 208.5Q542.9 210.1 544.2 212.7L544.2 212.7L544.4 212.7L544.4 199.6Q544.4 197.7 545.4 196.7Q546.4 195.7 548.0 195.7Q549.6 195.7 550.7 196.7Q551.7 197.7 551.7 199.6L551.7 199.6L551.7 235.5Q551.7 237.2 550.7 238.2Q549.7 239.2 548.1 239.2L548.1 239.2Q546.4 239.2 545.4 238.2Q544.4 237.2 544.4 235.5L544.4 235.5L544.4 233.1L544.2 233.1Q543.1 235.9 540.6 237.5Q538.1 239.1 534.6 239.1ZM536.8 233.1L536.8 233.1Q540.2 233.1 542.3 230.4Q544.4 227.7 544.4 223.1L544.4 223.1Q544.4 218.5 542.3 215.7Q540.2 213.0 536.8 213.0L536.8 213.0Q533.3 213.0 531.2 215.7Q529.2 218.4 529.2 223.1L529.2 223.1Q529.2 227.7 531.2 230.4Q533.2 233.1 536.8 233.1ZM571.6 239.2L571.6 239.2Q564.5 239.2 560.5 235.0Q556.5 230.7 556.5 223.2L556.5 223.2Q556.5 215.7 560.5 211.3Q564.5 206.9 571.2 206.9L571.2 206.9Q577.5 206.9 581.5 210.9Q585.5 215.0 585.5 221.4L585.5 221.4Q585.5 223.0 584.6 223.9Q583.7 224.8 582.1 224.8L582.1 224.8L563.8 224.8L563.8 225.0Q563.8 228.9 565.9 231.3Q568.0 233.6 571.5 233.6L571.5 233.6Q574.0 233.6 575.8 232.6Q577.5 231.7 579.3 229.4L579.3 229.4Q580.4 228.3 581.8 228.3L581.8 228.3Q583.0 228.3 583.9 229.0Q584.7 229.8 584.7 231.1L584.7 231.1Q584.7 231.9 584.2 232.9L584.2 232.9Q582.6 235.9 579.3 237.5Q576.0 239.2 571.6 239.2ZM563.8 220.0L563.8 220.0L578.3 220.0Q578.2 216.6 576.3 214.6Q574.3 212.5 571.2 212.5Q568.1 212.5 566.1 214.6Q564.0 216.7 563.8 220.0ZM598.5 238.2Q597.5 239.2 595.8 239.2Q594.2 239.2 593.2 238.2Q592.2 237.2 592.2 235.4L592.2 235.4L592.2 213.1L590.3 213.1Q589.0 213.1 588.2 212.4Q587.4 211.7 587.4 210.4L587.4 210.4Q587.4 209.1 588.2 208.4Q589.0 207.6 590.3 207.6L590.3 207.6L592.2 207.6L592.2 204.9Q592.2 196.0 600.7 196.0L600.7 196.0Q603.6 196.0 604.9 196.8Q606.3 197.6 606.3 199.0L606.3 199.0Q606.3 200.7 604.7 201.1L604.7 201.1Q604.1 201.3 603.1 201.3L603.1 201.3Q601.1 201.4 600.2 202.3Q599.4 203.2 599.4 205.2L599.4 205.2L599.4 207.6L603.3 207.6Q604.5 207.6 605.3 208.4Q606.1 209.1 606.1 210.4L606.1 210.4Q606.1 211.7 605.3 212.4Q604.5 213.1 603.3 213.1L603.3 213.1L599.5 213.1L599.5 235.4Q599.5 237.2 598.5 238.2ZM624.2 239.2L624.2 239.2Q617.1 239.2 613.1 235.0Q609.1 230.7 609.1 223.2L609.1 223.2Q609.1 215.7 613.1 211.3Q617.1 206.9 623.8 206.9L623.8 206.9Q630.1 206.9 634.1 210.9Q638.1 215.0 638.1 221.4L638.1 221.4Q638.1 223.0 637.2 223.9Q636.3 224.8 634.7 224.8L634.7 224.8L616.4 224.8L616.4 225.0Q616.4 228.9 618.5 231.3Q620.6 233.6 624.1 233.6L624.1 233.6Q626.6 233.6 628.4 232.6Q630.1 231.7 631.9 229.4L631.9 229.4Q632.9 228.3 634.3 228.3L634.3 228.3Q635.6 228.3 636.4 229.0Q637.3 229.8 637.3 231.1L637.3 231.1Q637.3 231.9 636.8 232.9L636.8 232.9Q635.2 235.9 631.9 237.5Q628.6 239.2 624.2 239.2ZM616.4 220.0L616.4 220.0L630.9 220.0Q630.8 216.6 628.8 214.6Q626.9 212.5 623.8 212.5Q620.7 212.5 618.7 214.6Q616.6 216.7 616.4 220.0ZM649.0 238.2Q648.0 239.2 646.4 239.2Q644.7 239.2 643.8 238.2Q642.8 237.1 642.8 235.3L642.8 235.3L642.8 210.6Q642.8 208.9 643.7 207.9Q644.6 206.9 646.2 206.9Q647.9 206.9 648.8 207.9Q649.8 208.9 649.8 210.6L649.8 210.6L649.8 212.8L650.0 212.8Q652.6 206.9 659.7 206.9L659.7 206.9Q664.8 206.9 667.6 210.0Q670.4 213.1 670.4 218.5L670.4 218.5L670.4 235.3Q670.4 237.1 669.4 238.2Q668.4 239.2 666.8 239.2Q665.1 239.2 664.1 238.2Q663.1 237.1 663.1 235.3L663.1 235.3L663.1 220.0Q663.1 216.6 661.5 214.9Q660.0 213.1 656.9 213.1L656.9 213.1Q653.8 213.1 651.9 215.2Q650.0 217.2 650.0 220.6L650.0 220.6L650.0 235.3Q650.0 237.1 649.0 238.2ZM689.9 239.2L689.9 239.2Q683.1 239.2 679.0 234.9Q675.0 230.5 675.0 223.1L675.0 223.1Q675.0 215.7 679.0 211.3Q683.0 206.9 689.8 206.9L689.8 206.9Q694.4 206.9 697.9 209.0Q701.5 211.1 702.6 214.4L702.6 214.4Q703.0 215.4 703.0 216.1L703.0 216.1Q703.0 217.5 702.1 218.3Q701.2 219.1 699.9 219.1L699.9 219.1Q698.8 219.1 698.0 218.6Q697.3 218.1 696.7 217.0L696.7 217.0Q694.4 212.8 690.0 212.8L690.0 212.8Q686.5 212.8 684.4 215.6Q682.4 218.3 682.4 223.1L682.4 223.1Q682.4 227.9 684.4 230.6Q686.5 233.3 690.0 233.3L690.0 233.3Q694.4 233.3 696.6 229.3L696.6 229.3Q697.4 228.1 698.1 227.6Q698.8 227.1 700 227.1L700 227.1Q701.3 227.1 702.2 227.9Q703.1 228.7 703.1 230.1L703.1 230.1Q703.1 230.9 702.6 231.9L702.6 231.9Q701.3 235.1 697.8 237.2Q694.3 239.2 689.9 239.2ZM721.8 239.2L721.8 239.2Q714.6 239.2 710.7 235.0Q706.7 230.7 706.7 223.2L706.7 223.2Q706.7 215.7 710.7 211.3Q714.6 206.9 721.4 206.9L721.4 206.9Q727.7 206.9 731.7 210.9Q735.7 215.0 735.7 221.4L735.7 221.4Q735.7 223.0 734.8 223.9Q733.9 224.8 732.3 224.8L732.3 224.8L713.9 224.8L713.9 225.0Q713.9 228.9 716.1 231.3Q718.2 233.6 721.7 233.6L721.7 233.6Q724.2 233.6 725.9 232.6Q727.7 231.7 729.5 229.4L729.5 229.4Q730.5 228.3 731.9 228.3L731.9 228.3Q733.2 228.3 734.0 229.0Q734.9 229.8 734.9 231.1L734.9 231.1Q734.9 231.9 734.4 232.9L734.4 232.9Q732.8 235.9 729.5 237.5Q726.2 239.2 721.8 239.2ZM714.0 220.0L714.0 220.0L728.5 220.0Q728.4 216.6 726.4 214.6Q724.5 212.5 721.4 212.5Q718.3 212.5 716.3 214.6Q714.2 216.7 714.0 220.0Z M762.2 239.2L762.2 239.2Q760.3 239.2 759.3 238.3Q758.2 237.4 757.6 235.4L757.6 235.4L750.9 212.2Q750.5 210.9 750.5 210.0L750.5 210.0Q750.5 208.7 751.5 207.8Q752.5 206.9 754.0 206.9L754.0 206.9Q756.7 206.9 757.4 210.0L757.4 210.0L762.6 231.4L762.7 231.4L768.1 210.2Q768.9 206.9 772.3 206.9L772.3 206.9Q775.6 206.9 776.4 210.2L776.4 210.2L781.9 231.4L782.0 231.4L787.2 210.0Q787.9 206.9 790.5 206.9L790.5 206.9Q792.1 206.9 793.0 207.8Q794.0 208.6 794.0 210.0L794.0 210.0Q794.0 210.9 793.6 212.2L793.6 212.2L786.9 235.4Q786.4 237.3 785.3 238.3Q784.1 239.2 782.3 239.2L782.3 239.2Q780.3 239.2 779.2 238.3Q778.1 237.4 777.6 235.4L777.6 235.4L772.3 215.9L772.1 215.9L766.8 235.4Q765.9 239.2 762.2 239.2ZM804.8 202.0Q803.6 203.2 801.9 203.2Q800.2 203.2 799.1 202.0Q797.9 200.8 797.9 199.2L797.9 199.2Q797.9 197.5 799.1 196.4Q800.2 195.2 801.9 195.2L801.9 195.2Q803.7 195.2 804.8 196.4Q806.0 197.5 806.0 199.2L806.0 199.2Q806.0 200.8 804.8 202.0ZM804.6 238.1Q803.6 239.2 801.9 239.2Q800.3 239.2 799.3 238.1Q798.3 237.1 798.3 235.3L798.3 235.3L798.3 210.7Q798.3 209.0 799.3 207.9Q800.3 206.9 801.9 206.9Q803.6 206.9 804.6 207.9Q805.6 209.0 805.6 210.8L805.6 210.8L805.6 235.3Q805.6 237.1 804.6 238.1ZM813.7 230.9L813.7 230.9L813.7 213.1L811.8 213.1Q810.4 213.1 809.6 212.4Q808.8 211.6 808.8 210.3L808.8 210.3Q808.8 209.0 809.6 208.3Q810.4 207.5 811.8 207.5L811.8 207.5L813.7 207.5L813.7 203.4Q813.7 201.6 814.7 200.6Q815.7 199.6 817.4 199.6L817.4 199.6Q819.1 199.6 820.0 200.6Q821.0 201.6 821.0 203.4L821.0 203.4L821.0 207.5L824.4 207.5Q825.8 207.5 826.5 208.3Q827.3 209.0 827.3 210.3L827.3 210.3Q827.3 211.6 826.5 212.4Q825.7 213.1 824.4 213.1L824.4 213.1L821.0 213.1L821.0 229.3Q821.0 231.1 821.7 231.9Q822.4 232.7 824.0 232.9L824.0 232.9L824.5 232.9Q827.4 233.2 827.4 235.6L827.4 235.6Q827.4 237.2 826.1 238.1Q824.7 238.9 822.2 238.9L822.2 238.9L821.9 238.9Q813.7 238.9 813.7 230.9ZM838.3 238.2Q837.3 239.2 835.7 239.2Q834.1 239.2 833.1 238.2Q832.0 237.1 832.0 235.3L832.0 235.3L832.0 199.5Q832.0 197.7 833.0 196.7Q834.0 195.7 835.6 195.7L835.6 195.7Q837.3 195.7 838.3 196.7Q839.2 197.7 839.2 199.5L839.2 199.5L839.2 212.9L839.4 212.9Q840.7 210.0 843.2 208.5Q845.7 206.9 849.2 206.9L849.2 206.9Q854.3 206.9 857.2 210.1Q860.1 213.2 860.1 218.6L860.1 218.6L860.1 235.3Q860.1 237.1 859.1 238.2Q858.1 239.2 856.4 239.2Q854.8 239.2 853.8 238.2Q852.8 237.1 852.8 235.3L852.8 235.3L852.8 220.1Q852.8 216.8 851.2 214.9Q849.5 213.1 846.4 213.1L846.4 213.1Q843.1 213.1 841.2 215.2Q839.3 217.3 839.3 220.7L839.3 220.7L839.3 235.3Q839.3 237.1 838.3 238.2Z M897.0 239.3L897.0 239.3Q887.8 239.3 882.5 233.4Q877.2 227.6 877.2 217.4L877.2 217.4Q877.2 207.3 882.5 201.5Q887.8 195.6 896.8 195.6L896.8 195.6Q902.7 195.6 907.1 198.2Q911.5 200.8 913.6 205.4L913.6 205.4Q914.3 206.9 914.3 208.3L914.3 208.3Q914.3 209.8 913.4 210.7Q912.5 211.6 911.0 211.6L911.0 211.6Q908.4 211.6 907.3 208.9L907.3 208.9Q905.8 205.6 903.1 203.8Q900.4 202.0 896.9 202.0L896.9 202.0Q891.4 202.0 888.2 206.2Q885.0 210.4 885.0 217.4L885.0 217.4Q885.0 224.5 888.2 228.7Q891.4 232.9 896.9 232.9L896.9 232.9Q904.6 232.9 907.4 226.3L907.4 226.3Q908.0 225.0 908.8 224.4Q909.5 223.9 910.8 223.9L910.8 223.9Q912.3 223.9 913.3 224.8Q914.3 225.7 914.3 227.2L914.3 227.2Q914.3 228.6 913.6 230.1L913.6 230.1Q911.5 234.4 907.2 236.8Q902.9 239.3 897.0 239.3ZM926.6 238.2Q925.6 239.2 923.9 239.2Q922.3 239.2 921.3 238.2Q920.3 237.1 920.3 235.3L920.3 235.3L920.3 199.6Q920.3 197.7 921.3 196.7Q922.3 195.7 923.9 195.7Q925.6 195.7 926.6 196.7Q927.6 197.7 927.6 199.6L927.6 199.6L927.6 235.3Q927.6 237.1 926.6 238.2ZM958.5 234.9Q954.4 239.2 947.5 239.2Q940.6 239.2 936.6 234.9Q932.5 230.6 932.5 223.1L932.5 223.1Q932.5 215.6 936.6 211.2Q940.7 206.9 947.5 206.9L947.5 206.9Q954.4 206.9 958.5 211.2Q962.6 215.6 962.6 223.1L962.6 223.1Q962.6 230.6 958.5 234.9ZM942.0 230.7Q944.0 233.4 947.5 233.4Q951.0 233.4 953.1 230.7Q955.1 228.0 955.1 223.1L955.1 223.1Q955.1 218.2 953.1 215.4Q951.0 212.7 947.5 212.7L947.5 212.7Q944.0 212.7 942.0 215.4Q939.9 218.2 939.9 223.1L939.9 223.1Q939.9 228.0 942.0 230.7ZM978.1 239.1L978.1 239.1Q973.0 239.1 970.1 236.0Q967.1 233.0 967.1 227.6L967.1 227.6L967.1 210.7Q967.1 209.0 968.1 207.9Q969.1 206.9 970.7 206.9Q972.4 206.9 973.4 207.9Q974.4 209.0 974.4 210.8L974.4 210.8L974.4 226.1Q974.4 229.5 976.0 231.2Q977.6 233.0 980.7 233.0L980.7 233.0Q983.8 233.0 985.6 230.9Q987.5 228.9 987.5 225.5L987.5 225.5L987.5 210.7Q987.5 209.0 988.5 207.9Q989.5 206.9 991.2 206.9L991.2 206.9Q992.8 206.9 993.8 207.9Q994.8 209.0 994.8 210.8L994.8 210.8L994.8 235.5Q994.8 237.2 993.8 238.2Q992.9 239.2 991.3 239.2L991.3 239.2Q989.7 239.2 988.7 238.2Q987.8 237.2 987.8 235.5L987.8 235.5L987.8 233.2L987.6 233.2Q985.0 239.1 978.1 239.1ZM1012.3 239.1L1012.3 239.1Q1006.4 239.1 1002.9 234.7Q999.4 230.4 999.4 223.0L999.4 223.0Q999.4 215.7 1002.9 211.3Q1006.4 207.0 1012.3 207.0L1012.3 207.0Q1015.6 207.0 1018.1 208.5Q1020.7 210.1 1021.9 212.7L1021.9 212.7L1022.1 212.7L1022.1 199.6Q1022.1 197.7 1023.1 196.7Q1024.1 195.7 1025.8 195.7Q1027.4 195.7 1028.4 196.7Q1029.4 197.7 1029.4 199.6L1029.4 199.6L1029.4 235.5Q1029.4 237.2 1028.4 238.2Q1027.4 239.2 1025.8 239.2L1025.8 239.2Q1024.2 239.2 1023.1 238.2Q1022.1 237.2 1022.1 235.5L1022.1 235.5L1022.1 233.1L1022.0 233.1Q1020.8 235.9 1018.3 237.5Q1015.8 239.1 1012.3 239.1ZM1014.5 233.1L1014.5 233.1Q1018.0 233.1 1020.1 230.4Q1022.1 227.7 1022.1 223.1L1022.1 223.1Q1022.1 218.5 1020.1 215.7Q1018.0 213.0 1014.5 213.0L1014.5 213.0Q1011.0 213.0 1009.0 215.7Q1006.9 218.4 1006.9 223.1L1006.9 223.1Q1006.9 227.7 1009.0 230.4Q1011.0 233.1 1014.5 233.1ZM1043.9 238.2Q1042.9 239.2 1041.2 239.2Q1039.6 239.2 1038.6 238.2Q1037.6 237.2 1037.6 235.4L1037.6 235.4L1037.6 213.1L1035.6 213.1Q1034.4 213.1 1033.6 212.4Q1032.8 211.7 1032.8 210.4L1032.8 210.4Q1032.8 209.1 1033.6 208.4Q1034.4 207.6 1035.6 207.6L1035.6 207.6L1037.6 207.6L1037.6 204.9Q1037.6 196.0 1046.1 196.0L1046.1 196.0Q1048.9 196.0 1050.3 196.8Q1051.7 197.6 1051.7 199.0L1051.7 199.0Q1051.7 200.7 1050.1 201.1L1050.1 201.1Q1049.5 201.3 1048.5 201.3L1048.5 201.3Q1046.5 201.4 1045.6 202.3Q1044.7 203.2 1044.7 205.2L1044.7 205.2L1044.7 207.6L1048.7 207.6Q1049.9 207.6 1050.7 208.4Q1051.4 209.1 1051.4 210.4L1051.4 210.4Q1051.4 211.7 1050.7 212.4Q1049.9 213.1 1048.7 213.1L1048.7 213.1L1044.9 213.1L1044.9 235.4Q1044.9 237.2 1043.9 238.2ZM1062.3 238.2Q1061.3 239.2 1059.6 239.2Q1058.0 239.2 1057.0 238.2Q1056.0 237.1 1056.0 235.3L1056.0 235.3L1056.0 199.6Q1056.0 197.7 1057.0 196.7Q1058.0 195.7 1059.6 195.7Q1061.3 195.7 1062.3 196.7Q1063.3 197.7 1063.3 199.6L1063.3 199.6L1063.3 235.3Q1063.3 237.1 1062.3 238.2ZM1078.6 239.1L1078.6 239.1Q1074.0 239.1 1071.1 236.5Q1068.2 233.9 1068.2 229.7L1068.2 229.7Q1068.2 225.6 1071.3 223.2Q1074.3 220.8 1080.0 220.4L1080.0 220.4L1088.2 219.9L1088.2 217.7Q1088.2 215.3 1086.7 213.9Q1085.2 212.6 1082.4 212.6L1082.4 212.6Q1080.3 212.6 1078.8 213.4Q1077.3 214.2 1075.9 216.2L1075.9 216.2Q1074.8 217.7 1073.0 217.7L1073.0 217.7Q1071.6 217.7 1070.8 216.9Q1069.9 216.1 1069.9 214.8L1069.9 214.8Q1069.9 213.8 1070.4 212.8L1070.4 212.8Q1071.6 210.1 1074.9 208.5Q1078.3 206.9 1082.7 206.9L1082.7 206.9Q1088.5 206.9 1092.0 209.7Q1095.4 212.5 1095.4 217.2L1095.4 217.2L1095.4 235.5Q1095.4 237.2 1094.5 238.2Q1093.5 239.2 1091.9 239.2L1091.9 239.2Q1090.4 239.2 1089.4 238.3Q1088.5 237.4 1088.4 235.8L1088.4 235.8L1088.4 233.6L1088.3 233.6Q1087.0 236.1 1084.3 237.6Q1081.6 239.1 1078.6 239.1ZM1080.8 233.6L1080.8 233.6Q1083.9 233.6 1086.1 231.7Q1088.2 229.8 1088.2 227.1L1088.2 227.1L1088.2 224.7L1081.0 225.1Q1078.4 225.3 1076.9 226.4Q1075.5 227.6 1075.5 229.4L1075.5 229.4Q1075.5 231.3 1076.9 232.4Q1078.4 233.6 1080.8 233.6ZM1107.6 238.1Q1106.6 239.2 1104.9 239.2Q1103.3 239.2 1102.3 238.1Q1101.3 237.1 1101.3 235.3L1101.3 235.3L1101.3 210.6Q1101.3 208.9 1102.3 207.9Q1103.2 206.9 1104.8 206.9L1104.8 206.9Q1106.3 206.9 1107.3 207.9Q1108.3 208.9 1108.3 210.6L1108.3 210.6L1108.3 213.0L1108.4 213.0Q1109.0 210.3 1110.9 208.6Q1112.7 207.0 1115.0 207.0L1115.0 207.0Q1116.7 207.0 1117.6 207.8L1117.6 207.8Q1118.7 208.6 1118.7 210.4L1118.7 210.4Q1118.7 212.1 1117.6 213.0L1117.6 213.0Q1116.5 213.9 1114.3 214.0L1114.3 214.0Q1108.6 214.0 1108.6 220.4L1108.6 220.4L1108.6 235.3Q1108.6 237.1 1107.6 238.1ZM1135.7 239.2L1135.7 239.2Q1128.6 239.2 1124.6 235.0Q1120.6 230.7 1120.6 223.2L1120.6 223.2Q1120.6 215.7 1124.6 211.3Q1128.6 206.9 1135.3 206.9L1135.3 206.9Q1141.7 206.9 1145.6 210.9Q1149.6 215.0 1149.6 221.4L1149.6 221.4Q1149.6 223.0 1148.7 223.9Q1147.8 224.8 1146.2 224.8L1146.2 224.8L1127.9 224.8L1127.9 225.0Q1127.9 228.9 1130.0 231.3Q1132.1 233.6 1135.7 233.6L1135.7 233.6Q1138.1 233.6 1139.9 232.6Q1141.7 231.7 1143.4 229.4L1143.4 229.4Q1144.5 228.3 1145.9 228.3L1145.9 228.3Q1147.2 228.3 1148.0 229.0Q1148.8 229.8 1148.8 231.1L1148.8 231.1Q1148.8 231.9 1148.3 232.9L1148.3 232.9Q1146.8 235.9 1143.5 237.5Q1140.2 239.2 1135.7 239.2ZM1128.0 220.0L1128.0 220.0L1142.5 220.0Q1142.4 216.6 1140.4 214.6Q1138.4 212.5 1135.4 212.5Q1132.3 212.5 1130.2 214.6Q1128.2 216.7 1128.0 220.0Z M57.8 321.6L57.8 321.6Q56.1 321.6 55.1 320.6Q54.1 319.5 54.1 317.7L54.1 317.7L54.1 285.2L44.4 285.2Q42.8 285.2 41.9 284.3Q40.9 283.5 40.9 282.0Q40.9 280.5 41.9 279.7Q42.8 278.8 44.4 278.8L44.4 278.8L71.3 278.8Q72.8 278.8 73.8 279.7Q74.7 280.5 74.7 282.0Q74.7 283.5 73.8 284.3Q72.8 285.2 71.3 285.2L71.3 285.2L61.6 285.2L61.6 317.7Q61.6 319.5 60.6 320.6Q59.6 321.6 57.8 321.6ZM89.5 321.6L89.5 321.6Q84.4 321.6 81.5 318.5Q78.5 315.5 78.5 310.1L78.5 310.1L78.5 293.2Q78.5 291.5 79.5 290.4Q80.5 289.4 82.1 289.4Q83.8 289.4 84.8 290.4Q85.8 291.5 85.8 293.3L85.8 293.3L85.8 308.6Q85.8 312.0 87.4 313.7Q89.0 315.5 92.1 315.5L92.1 315.5Q95.2 315.5 97.0 313.4Q98.9 311.4 98.9 308.0L98.9 308.0L98.9 293.2Q98.9 291.5 99.9 290.4Q100.9 289.4 102.5 289.4L102.5 289.4Q104.2 289.4 105.2 290.4Q106.2 291.5 106.2 293.3L106.2 293.3L106.2 318.0Q106.2 319.7 105.2 320.7Q104.3 321.7 102.7 321.7L102.7 321.7Q101.1 321.7 100.1 320.7Q99.2 319.7 99.2 318.0L99.2 318.0L99.2 315.7L99.0 315.7Q96.4 321.6 89.5 321.6ZM118.4 320.6Q117.4 321.7 115.8 321.7Q114.1 321.7 113.1 320.6Q112.1 319.6 112.1 317.8L112.1 317.8L112.1 293.1Q112.1 291.4 113.1 290.4Q114.0 289.4 115.6 289.4L115.6 289.4Q117.1 289.4 118.1 290.4Q119.1 291.4 119.1 293.1L119.1 293.1L119.1 295.5L119.2 295.5Q119.9 292.8 121.7 291.1Q123.5 289.5 125.9 289.5L125.9 289.5Q127.6 289.5 128.4 290.3L128.4 290.3Q129.5 291.1 129.5 292.9L129.5 292.9Q129.5 294.6 128.4 295.5L128.4 295.5Q127.3 296.4 125.2 296.5L125.2 296.5Q119.4 296.5 119.4 302.9L119.4 302.9L119.4 317.8Q119.4 319.6 118.4 320.6ZM139.0 320.7Q138.0 321.7 136.4 321.7Q134.7 321.7 133.8 320.7Q132.8 319.6 132.8 317.8L132.8 317.8L132.8 293.1Q132.8 291.4 133.7 290.4Q134.6 289.4 136.2 289.4Q137.9 289.4 138.8 290.4Q139.8 291.4 139.8 293.1L139.8 293.1L139.8 295.3L140.0 295.3Q142.6 289.4 149.7 289.4L149.7 289.4Q154.8 289.4 157.6 292.5Q160.4 295.6 160.4 301.0L160.4 301.0L160.4 317.8Q160.4 319.6 159.4 320.7Q158.4 321.7 156.8 321.7Q155.1 321.7 154.1 320.7Q153.1 319.6 153.1 317.8L153.1 317.8L153.1 302.5Q153.1 299.1 151.5 297.4Q150.0 295.6 146.9 295.6L146.9 295.6Q143.8 295.6 141.9 297.7Q140.0 299.7 140.0 303.1L140.0 303.1L140.0 317.8Q140.0 319.6 139.0 320.7ZM178.2 321.7L178.2 321.7Q173.4 321.7 170.0 320.0Q166.7 318.3 165.6 315.5L165.6 315.5Q165.3 314.7 165.3 314.0L165.3 314.0Q165.3 312.7 166.1 311.9Q167.0 311.1 168.3 311.1L168.3 311.1Q170.1 311.1 171.5 312.9L171.5 312.9Q172.7 314.8 174.3 315.6Q175.9 316.4 178.5 316.4L178.5 316.4Q181.1 316.4 182.6 315.4Q184.1 314.3 184.1 312.6L184.1 312.6Q184.1 311.2 183.1 310.3Q182.1 309.5 179.8 308.9L179.8 308.9L174.7 307.8Q165.7 305.8 165.7 298.9L165.7 298.9Q165.7 294.6 169.1 292.0Q172.6 289.4 178.3 289.4L178.3 289.4Q182.7 289.4 186.0 291.3Q189.2 293.1 189.9 295.9L189.9 295.9Q190.1 296.5 190.1 297.0L190.1 297.0Q190.1 298.1 189.3 298.9Q188.6 299.6 187.2 299.6L187.2 299.6Q185.4 299.6 184.5 298.2L184.5 298.2Q183.3 296.5 181.8 295.6Q180.4 294.7 178.2 294.7L178.2 294.7Q175.8 294.7 174.3 295.8Q172.8 296.8 172.8 298.5L172.8 298.5Q172.8 301.3 177.3 302.3L177.3 302.3L182.3 303.4Q187.2 304.5 189.3 306.4Q191.5 308.4 191.5 311.8L191.5 311.8Q191.5 316.3 187.8 319.0Q184.2 321.7 178.2 321.7ZM198.1 313.4L198.1 313.4L198.1 295.6L196.1 295.6Q194.8 295.6 194.0 294.9Q193.2 294.1 193.2 292.8L193.2 292.8Q193.2 291.5 194.0 290.8Q194.7 290.0 196.1 290.0L196.1 290.0L198.1 290.0L198.1 285.9Q198.1 284.1 199.1 283.1Q200.0 282.1 201.7 282.1L201.7 282.1Q203.4 282.1 204.4 283.1Q205.4 284.1 205.4 285.9L205.4 285.9L205.4 290.0L208.8 290.0Q210.1 290.0 210.9 290.8Q211.7 291.5 211.7 292.8L211.7 292.8Q211.7 294.1 210.9 294.9Q210.1 295.6 208.8 295.6L208.8 295.6L205.4 295.6L205.4 311.8Q205.4 313.6 206.1 314.4Q206.7 315.2 208.3 315.4L208.3 315.4L208.8 315.4Q211.8 315.7 211.8 318.1L211.8 318.1Q211.8 319.7 210.4 320.6Q209.1 321.4 206.6 321.4L206.6 321.4L206.3 321.4Q198.1 321.4 198.1 313.4ZM222.9 284.5Q221.7 285.7 220 285.7Q218.3 285.7 217.1 284.5Q216.0 283.3 216.0 281.7L216.0 281.7Q216.0 280.0 217.1 278.9Q218.3 277.7 220 277.7L220 277.7Q221.7 277.7 222.9 278.9Q224.1 280.0 224.1 281.7L224.1 281.7Q224.1 283.3 222.9 284.5ZM222.7 320.6Q221.7 321.7 220 321.7Q218.3 321.7 217.3 320.6Q216.4 319.6 216.4 317.8L216.4 317.8L216.4 293.2Q216.4 291.5 217.3 290.4Q218.3 289.4 220 289.4Q221.7 289.4 222.7 290.4Q223.7 291.5 223.7 293.3L223.7 293.3L223.7 317.8Q223.7 319.6 222.7 320.6ZM236.3 320.7Q235.3 321.7 233.7 321.7Q232.0 321.7 231.0 320.7Q230.0 319.6 230.0 317.8L230.0 317.8L230.0 282.1Q230.0 280.2 231.0 279.2Q232.0 278.2 233.7 278.2Q235.3 278.2 236.3 279.2Q237.3 280.2 237.3 282.1L237.3 282.1L237.3 317.8Q237.3 319.6 236.3 320.7ZM257.3 321.7L257.3 321.7Q250.2 321.7 246.2 317.5Q242.2 313.2 242.2 305.7L242.2 305.7Q242.2 298.2 246.2 293.8Q250.2 289.4 256.9 289.4L256.9 289.4Q263.2 289.4 267.2 293.4Q271.2 297.5 271.2 303.9L271.2 303.9Q271.2 305.5 270.3 306.4Q269.4 307.3 267.8 307.3L267.8 307.3L249.5 307.3L249.5 307.5Q249.5 311.4 251.6 313.8Q253.7 316.1 257.2 316.1L257.2 316.1Q259.7 316.1 261.5 315.1Q263.2 314.2 265 311.9L265 311.9Q266.1 310.8 267.5 310.8L267.5 310.8Q268.7 310.8 269.6 311.5Q270.4 312.3 270.4 313.6L270.4 313.6Q270.4 314.4 269.9 315.4L269.9 315.4Q268.3 318.4 265.0 320.0Q261.7 321.7 257.3 321.7ZM249.5 302.5L249.5 302.5L264.0 302.5Q263.9 299.1 262.0 297.1Q260.0 295.0 256.9 295.0Q253.8 295.0 251.8 297.1Q249.7 299.2 249.5 302.5Z "/><defs><clipPath id="satori_bc-id-0-1"><rect x="0" y="441" width="1200" height="189"/></clipPath></defs><mask id="satori_om-id-0-1"><rect x="0" y="442" width="1200" height="188" fill="#fff"/><path width="1200" height="189" fill="none" stroke="#000" stroke-width="2" d="M0,441 A0,0 0 0 1 0,441 h1200 A0,0 0 0 1 1200,441"/></mask><path width="1200" height="189" clip-path="url(#satori_bc-id-0-1)" fill="none" stroke="#dbdbdb" stroke-width="2" d="M0,441 A0,0 0 0 1 0,441 h1200 A0,0 0 0 1 1200,441"/><mask id="satori_om-id-0-1-0"><rect x="40" y="482" width="431" height="108" fill="#fff"/></mask><clipPath id="satori_cp-id-0-1-0-0"><rect x="40" y="504" width="64" height="64"/></clipPath><mask id="satori_om-id-0-1-0-0"><rect x="40" y="504" width="64" height="64" fill="#fff"/></mask><image x="40" y="504" width="64" height="64" href="data:image/svg+xml;utf8,%3Csvg  xmlns=%22http://www.w3.org/2000/svg%22 width=%2264%22 height=%2264%22 viewBox=%220 0 128 128%22%3E%3Cpath fill=%22%23224d67%22 d=%22M22.5 14.8c2.9 1.3 99 44 99 44c2.7 1.2 2.9 3.1 2 12.4c-1 10.5-1.9 37.8-40.2 42.9c-24.6 3.2-55.9-4.3-70.9-27.2C-6 58.8 11 23.4 14.8 17.7c2.4-3.5 4.8-4.2 7.7-2.9%22%3E%3C/path%3E%3Cpath fill=%22%23f0f4c3%22 d=%22M121.5 58.8c-.3-.2-92-40.8-98.9-43.9C9.6 31.5-3.8 76 27.9 96.2c33.6 21.5 78.7-10.2 93.6-37.4%22%3E%3C/path%3E%3Cpath fill=%22%23f0f4c3%22 d=%22M117.7 57c-.3-.2-86.7-38.4-93.2-41.3c-12.2 15.5-23.9 59.1 5.7 78c31.4 20.2 73.6-11.2 87.5-36.7%22%3E%3C/path%3E%3Cpath fill=%22%23cb2a42%22 d=%22M56.2 37.6L19.5 48.2c-2.5.8-4.4 2.8-5 5.3c-1.9 8.5.8 23.3 8.9 29.8c3.5 2.7 8.6 1.8 10.8-2.1L58.5 41c1.3-1.7.5-4.2-2.3-3.4m14.3 2.9s14.6 30.1 16 33s6.3 4.7 9.9 2.8c10.7-5.6 15.5-12.4 19.2-20.2c-8.9-3.9-42.4-18.8-42.4-18.8c-2.4-1.1-4 .6-2.7 3.2m-8.6 1.9C60.3 45.1 39.5 81 37.6 84.1c-1.9 3.2-.7 7.5 2.7 9.2c12.3 6.5 30.9.4 39.6-7c2.2-1.9 4.5-5.1 3.2-8.2S68.9 44.6 67.8 42.3c-1.2-2.7-4.1-2.8-5.9.1%22%3E%3C/path%3E%3Cpath fill=%22%23f0f4c3%22 d=%22M52.2 42.2c-1.4.4-10.1 3-11.1 3.4c-1.4.5-2.2 1.7-1.9 2.5c.3.9 1.7 1.1 3.1.6c.8-.3 7.1-3.9 9.5-5.2c-3.1 2.4-10.2 9.4-11.1 10.3c-1.4 1.5-1.7 3.4-.8 4.3c1 .9 2.9.5 4.3-1c1.2-1.3 8.5-12.8 9.1-13.9s.4-1.4-1.1-1m10.1 16.4c0-2.2 1.4-10.3 1.8-12.3c.4-1.6 1.5-1.8 1.8.5s1.7 9.7 1.7 11.8s-1.2 3.3-2.7 3.3c-1.4 0-2.6-1.1-2.6-3.3M79.9 49c-1.2-1.8-3.3-4.9-4.1-6.1c-.7-1.2.1-2.1 1.8-.9s4 2.9 5.4 4c1.6 1.3 1.9 3 .8 4s-2.7.8-3.9-1%22%3E%3C/path%3E%3Cellipse cx=%2287.3%22 cy=%22103.12%22 fill=%22%23cb2a42%22 rx=%223.4%22 ry=%222.3%22 transform=%22rotate(-27.098 87.298 103.126)%22%3E%3C/ellipse%3E%3Cellipse cx=%2298.89%22 cy=%22103.82%22 fill=%22%23cb2a42%22 rx=%223.4%22 ry=%222.3%22 transform=%22rotate(-30.642 98.887 103.818)%22%3E%3C/ellipse%3E%3Cellipse cx=%22102.02%22 cy=%2293.8%22 fill=%22%23cb2a42%22 rx=%223.4%22 ry=%222.3%22 transform=%22rotate(-37.16 102.017 93.797)%22%3E%3C/ellipse%3E%3Cpath fill=%22%23cb2a42%22 d=%22M57.6 30.3c-8.3-3.7-24.4-10.7-29.6-13c-3.6 2.2-9.7 11.4-11.2 21.2c-.6 3.6 1.7 5.9 5.3 4.9c0 0 33.7-9.3 35.3-9.7c1.6-.5 2-2.6.2-3.4%22%3E%3C/path%3E%3C/svg%3E" preserveAspectRatio="none" clip-path="url(#satori_cp-id-0-1-0-0)" mask="url(#satori_om-id-0-1-0-0)"/><mask id="satori_om-id-0-1-0-0-0"><rect x="40" y="504" width="0" height="64" fill="#fff"/></mask><mask id="satori_om-id-0-1-0-0-1"><rect x="40" y="504" width="0" height="64" fill="#fff"/></mask><mask id="satori_om-id-0-1-0-0-2"><rect x="40" y="504" width="0" height="64" fill="#fff"/></mask><mask id="satori_om-id-0-1-0-0-3"><rect x="40" y="504" width="0" height="64" fill="#fff"/></mask><mask id="satori_om-id-0-1-0-0-4"><rect x="40" y="504" width="0" height="64" fill="#fff"/></mask><mask id="satori_om-id-0-1-0-0-5"><rect x="40" y="504" width="0" height="64" fill="#fff"/></mask><mask id="satori_om-id-0-1-0-0-6"><rect x="40" y="504" width="0" height="64" fill="#fff"/></mask><mask id="satori_om-id-0-1-0-0-7"><rect x="40" y="504" width="0" height="64" fill="#fff"/></mask><mask id="satori_om-id-0-1-0-0-8"><rect x="40" y="504" width="0" height="64" fill="#fff"/></mask><mask id="satori_om-id-0-1-0-1"><rect x="116" y="512" width="355" height="48" fill="#fff"/></mask><path fill="#545454" d="M131.2 553.6L131.2 553.6Q126.1 553.6 122.8 551.8Q119.4 550.0 118.4 547.1L118.4 547.1Q118.0 546.1 118.0 545.2L118.0 545.2Q118.0 543.8 118.9 543.0Q119.7 542.1 121.1 542.1L121.1 542.1Q122.2 542.1 123.0 542.6Q123.7 543.1 124.4 544.2L124.4 544.2Q125.2 546.1 127.0 547.0Q128.8 547.9 131.4 547.9L131.4 547.9Q134.2 547.9 136.0 546.7Q137.7 545.5 137.7 543.6L137.7 543.6Q137.7 541.9 136.4 540.9Q135.1 539.9 131.9 539.3L131.9 539.3L128.3 538.6Q118.3 536.6 118.3 528.9L118.3 528.9Q118.3 525.9 119.9 523.5Q121.6 521.2 124.5 519.9Q127.4 518.7 131.2 518.7L131.2 518.7Q135.8 518.7 139.1 520.5Q142.4 522.4 143.5 525.7L143.5 525.7Q143.8 526.4 143.8 527.2L143.8 527.2Q143.8 528.5 142.9 529.3Q142.1 530.1 140.8 530.1L140.8 530.1Q139.6 530.1 138.8 529.6Q138.0 529.1 137.4 528.0L137.4 528.0Q135.8 524.4 131.2 524.4L131.2 524.4Q128.5 524.4 126.9 525.5Q125.4 526.6 125.4 528.5L125.4 528.5Q125.4 530.1 126.7 531.1Q128 532.1 131.0 532.7L131.0 532.7L134.5 533.4Q139.9 534.5 142.4 536.7Q144.8 539.0 144.8 542.8L144.8 542.8Q144.8 547.8 141.1 550.7Q137.5 553.6 131.2 553.6ZM160.0 553.6L160.0 553.6Q154.3 553.6 151.0 550.1Q147.6 546.6 147.6 540.5L147.6 540.5Q147.6 534.5 150.9 530.9Q154.3 527.4 159.9 527.4L159.9 527.4Q163.7 527.4 166.6 529.1Q169.5 530.7 170.5 533.4L170.5 533.4Q170.9 534.3 170.9 535.1L170.9 535.1Q170.9 536.3 170.1 537.0Q169.3 537.8 168.0 537.8L168.0 537.8Q167.0 537.8 166.3 537.3Q165.6 536.9 165.1 536.0L165.1 536.0Q163.3 532.8 160.2 532.8L160.2 532.8Q157.6 532.8 156.1 534.8Q154.6 536.8 154.6 540.5L154.6 540.5Q154.6 544.2 156.0 546.2Q157.5 548.2 160.1 548.2L160.1 548.2Q163.3 548.2 165.0 545.3L165.0 545.3Q165.7 544.2 166.4 543.7Q167.1 543.3 168.1 543.3L168.1 543.3Q169.4 543.3 170.2 544.0Q171.0 544.8 171.0 546.0L171.0 546.0Q171.0 546.8 170.6 547.8L170.6 547.8Q169.5 550.4 166.5 552.0Q163.6 553.6 160.0 553.6ZM182.1 553.5L182.1 553.5Q178.5 553.5 176.1 551.3Q173.7 549.2 173.7 545.8L173.7 545.8Q173.7 542.4 176.2 540.5Q178.8 538.5 183.5 538.3L183.5 538.3L189.8 537.9L189.8 536.2Q189.8 534.5 188.7 533.5Q187.6 532.5 185.6 532.5L185.6 532.5Q184.0 532.5 183.0 533.1Q181.9 533.7 180.7 535.2L180.7 535.2Q179.6 536.4 178.0 536.4L178.0 536.4Q176.8 536.4 176.0 535.7Q175.2 534.9 175.2 533.8L175.2 533.8Q175.2 533.0 175.5 532.3L175.5 532.3Q176.4 530 179.2 528.7Q182 527.4 185.9 527.4L185.9 527.4Q190.7 527.4 193.6 529.7Q196.6 532.0 196.6 535.8L196.6 535.8L196.6 550.1Q196.6 551.8 195.6 552.7Q194.7 553.6 193.2 553.6L193.2 553.6Q191.8 553.6 190.9 552.8Q190.0 552.0 189.9 550.5L189.9 550.5L189.9 549.2L189.8 549.2Q188.8 551.2 186.7 552.3Q184.5 553.5 182.1 553.5ZM184.4 548.5L184.4 548.5Q186.6 548.5 188.2 547.2Q189.8 545.9 189.8 543.9L189.8 543.9L189.8 542.0L184.5 542.4Q182.6 542.5 181.6 543.3Q180.5 544.1 180.5 545.5L180.5 545.5Q180.5 546.9 181.6 547.7Q182.6 548.5 184.4 548.5ZM207.0 552.6Q206.1 553.6 204.5 553.6Q203 553.6 202.1 552.6Q201.1 551.7 201.1 550.0L201.1 550.0L201.1 522.3Q201.1 520.6 202.1 519.7Q203 518.7 204.5 518.7Q206.1 518.7 207.0 519.7Q208.0 520.6 208.0 522.3L208.0 522.3L208.0 550.0Q208.0 551.7 207.0 552.6ZM220.0 553.5L220.0 553.5Q216.4 553.5 214.0 551.3Q211.6 549.2 211.6 545.8L211.6 545.8Q211.6 542.4 214.1 540.5Q216.7 538.5 221.4 538.3L221.4 538.3L227.7 537.9L227.7 536.2Q227.7 534.5 226.6 533.5Q225.5 532.5 223.5 532.5L223.5 532.5Q221.9 532.5 220.9 533.1Q219.8 533.7 218.6 535.2L218.6 535.2Q217.5 536.4 215.9 536.4L215.9 536.4Q214.7 536.4 213.9 535.7Q213.1 534.9 213.1 533.8L213.1 533.8Q213.1 533.0 213.4 532.3L213.4 532.3Q214.3 530 217.1 528.7Q219.9 527.4 223.8 527.4L223.8 527.4Q228.6 527.4 231.5 529.7Q234.5 532.0 234.5 535.8L234.5 535.8L234.5 550.1Q234.5 551.8 233.5 552.7Q232.6 553.6 231.1 553.6L231.1 553.6Q229.7 553.6 228.8 552.8Q227.9 552.0 227.8 550.5L227.8 550.5L227.8 549.2L227.7 549.2Q226.7 551.2 224.6 552.3Q222.4 553.5 220.0 553.5ZM222.3 548.5L222.3 548.5Q224.5 548.5 226.1 547.2Q227.7 545.9 227.7 543.9L227.7 543.9L227.7 542.0L222.4 542.4Q220.5 542.5 219.5 543.3Q218.4 544.1 218.4 545.5L218.4 545.5Q218.4 546.9 219.5 547.7Q220.5 548.5 222.3 548.5ZM242.4 553.6L242.4 553.6Q240.9 553.6 239.9 552.7Q239.0 551.8 239.0 550.1L239.0 550.1L239.0 522.3Q239.0 520.6 240.0 519.7Q240.9 518.7 242.4 518.7Q244.0 518.7 244.9 519.7Q245.9 520.6 245.9 522.3L245.9 522.3L245.9 532.3L246.0 532.3Q247.1 530.0 249.1 528.8Q251.1 527.5 253.8 527.5L253.8 527.5Q258.5 527.5 261.3 531.0Q264.0 534.4 264.0 540.5Q264.0 546.6 261.3 550.0Q258.5 553.5 253.8 553.5L253.8 553.5Q251.1 553.5 249.0 552.2Q247.0 551.0 245.9 548.8L245.9 548.8L245.8 548.8L245.8 550.1Q245.8 551.8 244.8 552.7Q243.9 553.6 242.4 553.6ZM251.4 548.0L251.4 548.0Q254 548.0 255.5 545.9Q257.0 543.9 257.0 540.5L257.0 540.5Q257.0 537.1 255.5 535.1Q254 533.0 251.4 533.0L251.4 533.0Q248.9 533.0 247.4 535.1Q245.8 537.1 245.8 540.5L245.8 540.5Q245.8 543.9 247.4 545.9Q248.9 548.0 251.4 548.0ZM273.6 552.6Q272.7 553.6 271.1 553.6Q269.6 553.6 268.6 552.6Q267.7 551.7 267.7 550.0L267.7 550.0L267.7 522.3Q267.7 520.6 268.6 519.7Q269.6 518.7 271.1 518.7Q272.7 518.7 273.6 519.7Q274.5 520.6 274.5 522.3L274.5 522.3L274.5 550.0Q274.5 551.7 273.6 552.6ZM290.7 553.6L290.7 553.6Q284.8 553.6 281.5 550.2Q278.2 546.7 278.2 540.6L278.2 540.6Q278.2 534.5 281.5 531.0Q284.8 527.4 290.4 527.4L290.4 527.4Q295.7 527.4 299.0 530.7Q302.3 533.9 302.3 539.1L302.3 539.1Q302.3 540.5 301.5 541.3Q300.7 542.1 299.3 542.1L299.3 542.1L285.0 542.1L285.0 542.4Q285.0 545.2 286.5 546.9Q288.1 548.5 290.7 548.5L290.7 548.5Q292.6 548.5 293.9 547.8Q295.3 547.2 296.7 545.5L296.7 545.5Q297.7 544.5 298.9 544.5L298.9 544.5Q300.1 544.5 300.8 545.2Q301.6 545.9 301.6 547.0L301.6 547.0Q301.6 547.8 301.1 548.7L301.1 548.7Q299.9 551 297.1 552.3Q294.3 553.6 290.7 553.6ZM285.0 537.9L285.0 537.9L295.7 537.9Q295.6 535.4 294.1 533.9Q292.7 532.5 290.4 532.5Q288.2 532.5 286.7 534.0Q285.2 535.5 285.0 537.9Z M322.0 552.5Q321.1 553.5 319.4 553.5Q317.8 553.5 316.8 552.5Q315.9 551.6 315.9 549.8L315.9 549.8L315.9 522.5Q315.9 520.7 316.8 519.7Q317.8 518.8 319.4 518.8Q321.1 518.8 322.0 519.7Q323.0 520.7 323.0 522.5L323.0 522.5L323.0 533.0L338.2 533.0L338.2 522.5Q338.2 520.7 339.1 519.7Q340.1 518.8 341.7 518.8Q343.4 518.8 344.3 519.7Q345.3 520.7 345.3 522.5L345.3 522.5L345.3 549.8Q345.3 551.6 344.3 552.5Q343.4 553.5 341.7 553.5Q340.1 553.5 339.1 552.5Q338.2 551.6 338.2 549.8L338.2 549.8L338.2 538.8L323.0 538.8L323.0 549.8Q323.0 551.6 322.0 552.5ZM357.7 553.5L357.7 553.5Q354.1 553.5 351.7 551.3Q349.3 549.2 349.3 545.8L349.3 545.8Q349.3 542.4 351.9 540.5Q354.4 538.5 359.1 538.3L359.1 538.3L365.4 537.9L365.4 536.2Q365.4 534.5 364.3 533.5Q363.2 532.5 361.2 532.5L361.2 532.5Q359.7 532.5 358.6 533.1Q357.5 533.7 356.4 535.2L356.4 535.2Q355.2 536.4 353.6 536.4L353.6 536.4Q352.4 536.4 351.6 535.7Q350.8 534.9 350.8 533.8L350.8 533.8Q350.8 533.0 351.1 532.3L351.1 532.3Q352.0 530 354.8 528.7Q357.6 527.4 361.5 527.4L361.5 527.4Q366.4 527.4 369.3 529.7Q372.2 532.0 372.2 535.8L372.2 535.8L372.2 550.1Q372.2 551.8 371.3 552.7Q370.3 553.6 368.8 553.6L368.8 553.6Q367.4 553.6 366.5 552.8Q365.7 552.0 365.6 550.5L365.6 550.5L365.6 549.2L365.4 549.2Q364.4 551.2 362.3 552.3Q360.1 553.5 357.7 553.5ZM360.0 548.5L360.0 548.5Q362.3 548.5 363.9 547.2Q365.4 545.9 365.4 543.9L365.4 543.9L365.4 542.0L360.1 542.4Q358.2 542.5 357.2 543.3Q356.1 544.1 356.1 545.5L356.1 545.5Q356.1 546.9 357.2 547.7Q358.3 548.5 360.0 548.5ZM388.0 553.6L388.0 553.6Q382.3 553.6 379.0 550.1Q375.7 546.6 375.7 540.5L375.7 540.5Q375.7 534.5 379.0 530.9Q382.3 527.4 388.0 527.4L388.0 527.4Q391.7 527.4 394.6 529.1Q397.6 530.7 398.6 533.4L398.6 533.4Q399.0 534.3 399.0 535.1L399.0 535.1Q399.0 536.3 398.1 537.0Q397.3 537.8 396.0 537.8L396.0 537.8Q395.0 537.8 394.4 537.3Q393.7 536.9 393.1 536.0L393.1 536.0Q391.3 532.8 388.2 532.8L388.2 532.8Q385.6 532.8 384.1 534.8Q382.6 536.8 382.6 540.5L382.6 540.5Q382.6 544.2 384.1 546.2Q385.6 548.2 388.2 548.2L388.2 548.2Q391.3 548.2 393.1 545.3L393.1 545.3Q393.8 544.2 394.5 543.7Q395.1 543.3 396.2 543.3L396.2 543.3Q397.4 543.3 398.2 544.0Q399.1 544.8 399.1 546.0L399.1 546.0Q399.1 546.8 398.6 547.8L398.6 547.8Q397.5 550.4 394.6 552.0Q391.6 553.6 388.0 553.6ZM408.8 552.6Q407.9 553.6 406.3 553.6Q404.8 553.6 403.8 552.6Q402.9 551.7 402.9 550.0L402.9 550.0L402.9 522.3Q402.9 520.6 403.8 519.7Q404.8 518.7 406.3 518.7Q407.9 518.7 408.8 519.7Q409.7 520.6 409.7 522.3L409.7 522.3L409.7 537.9L409.8 537.9L418.9 528.8Q420.2 527.4 421.6 527.4L421.6 527.4Q423.0 527.4 423.8 528.3Q424.7 529.1 424.7 530.4L424.7 530.4Q424.7 531.2 424.4 531.7Q424.1 532.3 423.4 533.0L423.4 533.0L417.0 539.0L424.0 548.0Q425.0 549.2 425.0 550.5L425.0 550.5Q425.0 551.8 424.1 552.7Q423.2 553.6 421.7 553.6L421.7 553.6Q420.6 553.6 419.9 553.1Q419.2 552.6 418.4 551.4L418.4 551.4L411.9 542.9L409.7 544.9L409.7 550.0Q409.7 551.7 408.8 552.6ZM440.1 553.6L440.1 553.6Q434.2 553.6 430.9 550.2Q427.6 546.7 427.6 540.6L427.6 540.6Q427.6 534.5 430.9 531.0Q434.2 527.4 439.8 527.4L439.8 527.4Q445.1 527.4 448.4 530.7Q451.7 533.9 451.7 539.1L451.7 539.1Q451.7 540.5 450.9 541.3Q450.1 542.1 448.7 542.1L448.7 542.1L434.4 542.1L434.4 542.4Q434.4 545.2 435.9 546.9Q437.5 548.5 440.1 548.5L440.1 548.5Q442.0 548.5 443.3 547.8Q444.7 547.2 446.1 545.5L446.1 545.5Q447.1 544.5 448.3 544.5L448.3 544.5Q449.5 544.5 450.2 545.2Q451.0 545.9 451.0 547.0L451.0 547.0Q451.0 547.8 450.5 548.7L450.5 548.7Q449.3 551 446.5 552.3Q443.8 553.6 440.1 553.6ZM434.4 537.9L434.4 537.9L445.1 537.9Q445.0 535.4 443.6 533.9Q442.1 532.5 439.9 532.5Q437.6 532.5 436.1 534.0Q434.6 535.5 434.4 537.9ZM458.6 553.6L458.6 553.6Q457.1 553.6 456.1 552.6Q455.2 551.7 455.2 550.0L455.2 550.0L455.2 530.9Q455.2 529.3 456.1 528.3Q457.0 527.4 458.5 527.4L458.5 527.4Q460.0 527.4 460.9 528.3Q461.8 529.3 461.8 530.9L461.8 530.9L461.8 532.5L461.9 532.5Q462.4 530.2 463.8 528.9Q465.2 527.5 467.1 527.5L467.1 527.5Q468.5 527.5 469.3 528.2L469.3 528.2Q470.2 528.9 470.2 530.7L470.2 530.7Q470.2 532.3 469.3 533.2L469.3 533.2Q468.2 534.0 466.3 534.1L466.3 534.1Q464.0 534.1 463.0 535.3Q462.1 536.5 462.1 538.8L462.1 538.8L462.1 550.0Q462.1 551.7 461.1 552.6Q460.2 553.6 458.6 553.6Z "/><mask id="satori_om-id-0-1-1"><rect x="947" y="524" width="213" height="36" fill="#fff"/></mask><path fill="#8e8e8e" d="M950.9 552.6Q950.5 552.9 950.0 552.9Q949.4 552.9 949.1 552.6Q948.8 552.2 948.8 551.7L948.8 551.7L948.8 532.6Q948.8 532.0 949.1 531.6Q949.5 531.3 950.1 531.3Q950.6 531.3 951.0 531.6Q951.3 532.0 951.3 532.6L951.3 532.6L951.3 540.0L951.4 540.0Q952.1 538.7 953.4 537.9Q954.7 537.2 956.3 537.2L956.3 537.2Q959.2 537.2 960.9 539.3Q962.7 541.5 962.7 545.0L962.7 545.0Q962.7 548.6 960.9 550.8Q959.2 552.9 956.2 552.9L956.2 552.9Q954.6 552.9 953.3 552.2Q952.0 551.4 951.3 550.1L951.3 550.1L951.2 550.1L951.2 551.7Q951.2 552.2 950.9 552.6ZM955.7 550.7L955.7 550.7Q957.8 550.7 958.9 549.2Q960.1 547.7 960.1 545.0L960.1 545.0Q960.1 542.5 958.9 540.9Q957.8 539.4 955.7 539.4L955.7 539.4Q953.8 539.4 952.6 541.0Q951.3 542.5 951.3 545.0L951.3 545.0Q951.3 547.6 952.6 549.1Q953.8 550.7 955.7 550.7ZM966.8 558.4L966.8 558.4Q965.9 558.4 965.4 558.0Q964.9 557.7 964.9 557.1L964.9 557.1Q964.9 556.7 965.1 556.4Q965.4 556.2 965.9 556.2L965.9 556.2Q966.1 556.2 966.3 556.2Q966.5 556.2 966.7 556.2L966.7 556.2Q968.4 556.2 969.2 553.7L969.2 553.7L969.6 552.7L964.3 539.0Q964.2 538.6 964.2 538.3L964.2 538.3Q964.2 537.8 964.6 537.5Q964.9 537.2 965.5 537.2L965.5 537.2Q966.4 537.2 966.7 538.1L966.7 538.1L970.9 550.1L971.0 550.1L975.2 538.1Q975.3 537.6 975.6 537.4Q975.9 537.2 976.4 537.2L976.4 537.2Q976.9 537.2 977.3 537.5Q977.6 537.8 977.6 538.3L977.6 538.3Q977.6 538.6 977.5 539.0L977.5 539.0L971.9 553.7Q970.9 556.4 969.8 557.4Q968.7 558.4 966.8 558.4Z M986.5 552.9L986.5 552.9Q985.9 552.9 985.5 552.5Q985.2 552.2 985.2 551.7L985.2 551.7Q985.2 551.4 985.3 551.0L985.3 551.0L992.1 532.6Q992.6 531.3 993.8 531.3L993.8 531.3Q995.0 531.3 995.5 532.6L995.5 532.6L1002.3 551.0Q1002.5 551.4 1002.5 551.7L1002.5 551.7Q1002.5 552.2 1002.1 552.5Q1001.7 552.9 1001.2 552.9L1001.2 552.9Q1000.2 552.9 999.9 551.9L999.9 551.9L998.0 546.6L989.6 546.6L987.8 551.9Q987.4 552.9 986.5 552.9ZM993.8 534.7L990.4 544.4L997.2 544.4L993.9 534.7L993.8 534.7ZM1007.1 552.5Q1006.8 552.9 1006.2 552.9Q1005.7 552.9 1005.3 552.5Q1004.9 552.2 1004.9 551.6L1004.9 551.6L1004.9 538.5Q1004.9 537.9 1005.3 537.5Q1005.6 537.2 1006.1 537.2Q1006.7 537.2 1007 537.5Q1007.3 537.9 1007.3 538.5L1007.3 538.5L1007.3 539.9L1007.4 539.9Q1008.1 538.6 1009.3 537.9Q1010.5 537.2 1012.2 537.2L1012.2 537.2Q1014.7 537.2 1016.1 538.7Q1017.5 540.2 1017.5 542.8L1017.5 542.8L1017.5 551.6Q1017.5 552.2 1017.1 552.5Q1016.8 552.9 1016.2 552.9Q1015.7 552.9 1015.3 552.5Q1015.0 552.2 1015.0 551.6L1015.0 551.6L1015.0 543.2Q1015.0 541.4 1014.1 540.4Q1013.2 539.4 1011.5 539.4L1011.5 539.4Q1009.7 539.4 1008.6 540.6Q1007.5 541.8 1007.5 543.7L1007.5 543.7L1007.5 551.6Q1007.5 552.2 1007.1 552.5ZM1026.0 552.9L1026.0 552.9Q1024.0 552.9 1022.5 552.1Q1021.0 551.2 1020.5 549.8L1020.5 549.8Q1020.3 549.5 1020.3 549.2L1020.3 549.2Q1020.3 548.7 1020.7 548.4Q1021.0 548.2 1021.5 548.2L1021.5 548.2Q1022.2 548.2 1022.6 548.9L1022.6 548.9Q1023.2 550.0 1024.0 550.4Q1024.8 550.8 1026.2 550.8L1026.2 550.8Q1027.7 550.8 1028.6 550.2Q1029.5 549.6 1029.5 548.6L1029.5 548.6Q1029.5 547.7 1029.0 547.3Q1028.4 546.8 1027.2 546.5L1027.2 546.5L1024.8 545.9Q1020.5 544.8 1020.5 541.6L1020.5 541.6Q1020.5 539.6 1022.1 538.4Q1023.7 537.2 1026.2 537.2L1026.2 537.2Q1028.1 537.2 1029.6 538.1Q1031.1 539.0 1031.4 540.4L1031.4 540.4Q1031.4 540.6 1031.4 540.8L1031.4 540.8Q1031.4 541.2 1031.1 541.5Q1030.9 541.8 1030.4 541.8L1030.4 541.8Q1029.6 541.8 1029.3 541.1L1029.3 541.1Q1028.8 540.1 1028.0 539.7Q1027.3 539.3 1026.1 539.3L1026.1 539.3Q1024.7 539.3 1023.8 539.9Q1023.0 540.5 1023.0 541.5L1023.0 541.5Q1023.0 543.1 1025.5 543.7L1025.5 543.7L1027.7 544.2Q1030.1 544.8 1031.1 545.8Q1032.1 546.7 1032.1 548.4L1032.1 548.4Q1032.1 550.4 1030.4 551.7Q1028.7 552.9 1026.0 552.9ZM1037.0 552.5Q1036.7 552.9 1036.1 552.9Q1035.5 552.9 1035.2 552.5Q1034.8 552.2 1034.8 551.6L1034.8 551.6L1034.8 532.6Q1034.8 532.0 1035.2 531.6Q1035.5 531.3 1036.1 531.3L1036.1 531.3Q1036.7 531.3 1037.0 531.6Q1037.4 532.0 1037.4 532.6L1037.4 532.6L1037.4 539.9L1037.4 539.9Q1038.1 538.6 1039.3 537.9Q1040.6 537.2 1042.3 537.2L1042.3 537.2Q1044.8 537.2 1046.2 538.7Q1047.6 540.2 1047.6 542.8L1047.6 542.8L1047.6 551.6Q1047.6 552.2 1047.3 552.5Q1046.9 552.9 1046.4 552.9Q1045.8 552.9 1045.4 552.5Q1045.1 552.2 1045.1 551.6L1045.1 551.6L1045.1 543.3Q1045.1 541.4 1044.2 540.4Q1043.3 539.4 1041.5 539.4L1041.5 539.4Q1039.6 539.4 1038.5 540.6Q1037.4 541.8 1037.4 543.8L1037.4 543.8L1037.4 551.6Q1037.4 552.2 1037.0 552.5ZM1056.1 552.9L1056.1 552.9Q1053.6 552.9 1052.2 551.4Q1050.8 549.9 1050.8 547.3L1050.8 547.3L1050.8 538.5Q1050.8 537.9 1051.2 537.5Q1051.5 537.2 1052.1 537.2Q1052.6 537.2 1053.0 537.5Q1053.3 537.9 1053.3 538.5L1053.3 538.5L1053.3 546.9Q1053.3 550.7 1056.9 550.7L1056.9 550.7Q1058.7 550.7 1059.8 549.5Q1060.8 548.3 1060.8 546.4L1060.8 546.4L1060.8 538.5Q1060.8 537.9 1061.2 537.5Q1061.6 537.2 1062.1 537.2Q1062.7 537.2 1063.0 537.5Q1063.4 537.9 1063.4 538.5L1063.4 538.5L1063.4 551.6Q1063.4 552.2 1063.1 552.6Q1062.7 552.9 1062.2 552.9Q1061.6 552.9 1061.3 552.6Q1061.0 552.2 1061.0 551.6L1061.0 551.6L1061.0 550.2L1060.9 550.2Q1059.5 552.9 1056.1 552.9ZM1069.0 552.5Q1068.6 552.9 1068.1 552.9Q1067.5 552.9 1067.2 552.5Q1066.8 552.2 1066.8 551.6L1066.8 551.6L1066.8 532.6Q1066.8 532.0 1067.2 531.6Q1067.5 531.3 1068.1 531.3Q1068.6 531.3 1069.0 531.6Q1069.4 532.0 1069.4 532.6L1069.4 532.6L1069.4 551.6Q1069.4 552.2 1069.0 552.5Z M1081.6 552.5Q1081.3 552.9 1080.7 552.9Q1080.1 552.9 1079.7 552.5Q1079.3 552.1 1079.3 551.5L1079.3 551.5L1079.3 532.7Q1079.3 532.1 1079.7 531.7Q1080.1 531.3 1080.7 531.3Q1081.3 531.3 1081.6 531.7Q1082.0 532.1 1082.0 532.7L1082.0 532.7L1082.0 541.8L1082.1 541.8L1091.6 531.8Q1092.0 531.3 1092.6 531.3L1092.6 531.3Q1093.1 531.3 1093.5 531.7Q1093.8 532.0 1093.8 532.5L1093.8 532.5Q1093.8 533.0 1093.5 533.3L1093.5 533.3L1086.2 540.9L1094.3 550.6Q1094.7 551.1 1094.7 551.6L1094.7 551.6Q1094.7 552.2 1094.3 552.5Q1093.9 552.9 1093.4 552.9L1093.4 552.9Q1092.7 552.9 1092.2 552.2L1092.2 552.2L1084.3 542.8L1082.0 545.3L1082.0 551.5Q1082.0 552.1 1081.6 552.5ZM1102.6 552.9L1102.6 552.9Q1100.1 552.9 1098.7 551.4Q1097.3 549.9 1097.3 547.3L1097.3 547.3L1097.3 538.5Q1097.3 537.9 1097.7 537.5Q1098.1 537.2 1098.6 537.2Q1099.2 537.2 1099.5 537.5Q1099.9 537.9 1099.9 538.5L1099.9 538.5L1099.9 546.9Q1099.9 550.7 1103.4 550.7L1103.4 550.7Q1105.2 550.7 1106.3 549.5Q1107.4 548.3 1107.4 546.4L1107.4 546.4L1107.4 538.5Q1107.4 537.9 1107.7 537.5Q1108.1 537.2 1108.6 537.2Q1109.2 537.2 1109.6 537.5Q1109.9 537.9 1109.9 538.5L1109.9 538.5L1109.9 551.6Q1109.9 552.2 1109.6 552.6Q1109.3 552.9 1108.7 552.9Q1108.2 552.9 1107.8 552.6Q1107.5 552.2 1107.5 551.6L1107.5 551.6L1107.5 550.2L1107.4 550.2Q1106.0 552.9 1102.6 552.9ZM1115.4 552.5Q1115.1 552.9 1114.5 552.9Q1113.9 552.9 1113.6 552.5Q1113.2 552.2 1113.2 551.6L1113.2 551.6L1113.2 538.5Q1113.2 537.9 1113.6 537.5Q1113.9 537.2 1114.4 537.2Q1114.9 537.2 1115.3 537.5Q1115.6 537.9 1115.6 538.5L1115.6 538.5L1115.6 539.9L1115.7 539.9Q1116.2 538.6 1117.4 537.9Q1118.5 537.2 1120.0 537.2L1120.0 537.2Q1121.6 537.2 1122.7 537.9Q1123.8 538.7 1124.3 540.1L1124.3 540.1L1124.3 540.1Q1125.0 538.7 1126.2 537.9Q1127.5 537.2 1129.1 537.2L1129.1 537.2Q1131.4 537.2 1132.7 538.5Q1134.1 539.9 1134.1 542.1L1134.1 542.1L1134.1 551.6Q1134.1 552.2 1133.7 552.5Q1133.4 552.9 1132.8 552.9Q1132.2 552.9 1131.9 552.5Q1131.5 552.2 1131.5 551.6L1131.5 551.6L1131.5 542.7Q1131.5 541.2 1130.7 540.3Q1129.9 539.4 1128.4 539.4Q1126.9 539.4 1125.9 540.4Q1124.9 541.4 1124.9 543.0L1124.9 543.0L1124.9 551.6Q1124.9 552.2 1124.6 552.5Q1124.2 552.9 1123.6 552.9Q1123.1 552.9 1122.7 552.5Q1122.4 552.2 1122.4 551.6L1122.4 551.6L1122.4 542.5Q1122.4 541.1 1121.5 540.2Q1120.7 539.4 1119.3 539.4L1119.3 539.4Q1117.7 539.4 1116.8 540.5Q1115.8 541.5 1115.8 543.1L1115.8 543.1L1115.8 551.6Q1115.8 552.2 1115.4 552.5ZM1141.8 552.9L1141.8 552.9Q1139.5 552.9 1138.1 551.7Q1136.7 550.4 1136.7 548.4L1136.7 548.4Q1136.7 546.4 1138.1 545.2Q1139.6 544.1 1142.2 543.9L1142.2 543.9L1146.6 543.7L1146.6 542.4Q1146.6 541.0 1145.7 540.2Q1144.8 539.4 1143.2 539.4L1143.2 539.4Q1142.0 539.4 1141.1 539.9Q1140.2 540.4 1139.6 541.5L1139.6 541.5Q1139.3 542.1 1138.6 542.1L1138.6 542.1Q1138.1 542.1 1137.7 541.8Q1137.4 541.5 1137.4 541.0Q1137.4 540.5 1137.7 539.9L1137.7 539.9Q1138.4 538.7 1139.9 537.9Q1141.4 537.2 1143.3 537.2L1143.3 537.2Q1146.0 537.2 1147.6 538.5Q1149.1 539.9 1149.1 542.1L1149.1 542.1L1149.1 551.6Q1149.1 552.2 1148.8 552.6Q1148.5 552.9 1147.9 552.9L1147.9 552.9Q1147.4 552.9 1147.1 552.6Q1146.7 552.2 1146.7 551.6L1146.7 551.6L1146.7 550.0L1146.7 550.0Q1146.0 551.3 1144.6 552.1Q1143.3 552.9 1141.8 552.9ZM1142.3 550.8L1142.3 550.8Q1144.1 550.8 1145.4 549.6Q1146.6 548.5 1146.6 546.9L1146.6 546.9L1146.6 545.6L1142.5 545.9Q1141.0 546.0 1140.1 546.6Q1139.3 547.3 1139.3 548.4Q1139.3 549.4 1140.1 550.1Q1140.9 550.8 1142.3 550.8ZM1154.6 552.5Q1154.2 552.9 1153.6 552.9Q1153.1 552.9 1152.7 552.5Q1152.4 552.2 1152.4 551.6L1152.4 551.6L1152.4 538.5Q1152.4 537.9 1152.7 537.5Q1153.0 537.2 1153.6 537.2Q1154.1 537.2 1154.4 537.5Q1154.8 537.9 1154.8 538.5L1154.8 538.5L1154.8 539.9L1154.8 539.9Q1155.2 538.7 1156.2 537.9Q1157.1 537.2 1158.3 537.2L1158.3 537.2Q1159.1 537.2 1159.5 537.5L1159.5 537.5Q1159.8 537.8 1159.8 538.4L1159.8 538.4Q1159.8 539.0 1159.4 539.3L1159.4 539.3Q1159.0 539.6 1158.2 539.6L1158.2 539.6Q1156.6 539.6 1155.7 540.6Q1154.9 541.6 1154.9 543.2L1154.9 543.2L1154.9 551.6Q1154.9 552.2 1154.6 552.5Z "/></svg>